<svg xmlns="http://www.w3.org/2000/svg" viewBox="0 0 512 512"><path d="M463.6 387.84a75.8 75.8 0 0 1-75.76 75.76H124.16a75.8 75.8 0 0 1-75.76-75.76V145.4h415.2v242.44Z" style="fill:#819064"/><path d="M50 140h412v247.84A74.2 74.2 0 0 1 387.84 462H124.16A74.2 74.2 0 0 1 50 387.84V140Z" style="fill:#fffa00"/><path d="M265 147h92v315h-92z" style="fill:#b3bd00"/><path d="M417.93 56.37c24.05 10.16 41.81 32.3 45.66 58.91.02.12-.09 6.72-.09 6.72h-415s-.08-6.6-.07-6.72a75.95 75.95 0 0 1 45.64-58.91A73.83 73.83 0 0 1 124.16 50h263.68c10.71 0 20.9 2.28 30.09 6.37Z" style="fill:#fe80fa"/><path d="M48.41 115.28H463.6V147H48.41z" style="fill:#959090"/><path d="M48.41 115.28H463.6V147H48.41z" style="fill:#959090"/><path d="M136.27 209.5a2.8 2.8 0 0 1 1.61-.5H372.6c.6 0 1.15.18 1.61.5l59.2 57.5H78.6l57.67-57.5Z" style="fill:#323a3a"/><path d="M440 286.12c0-16.62-13-30.12-29.02-30.12H101.02C85 256 72 269.5 72 286.12v89.76C72 392.5 85 406 101.02 406h309.96C427 406 440 392.5 440 375.88v-89.76Z" style="fill:#121d19"/><path d="M128 285h285v92H128z" style="fill:#001600"/><path d="m251.99 346.41 2-4.81H258l2.01 4.81-2 4.81H254l-2.01-4.8Zm0-30.47 2-4.81H258l2.01 4.8-2 4.82H254l-2.01-4.81Zm-79.79 40.94v-16.04l3.84-6.42h1.93l3.85 6.42v16.04l-3.85 6.42h-1.93l-3.85-6.42Zm0-36.08v-16.05l3.84-6.42h1.93l3.85 6.42v16.04l-3.85 6.42h-1.93l-3.85-6.42Z" style="fill:#2c4343"/><path d="M149.59 373.03c.14.09.55.15.55.15h16.04c.2 0 .38-.05.55-.15l6.41-3.85c.32-.19.52-.54.52-.91v-1.93c0-.37-.2-.72-.52-.91l-6.41-3.85c-.17-.1-.36-.15-.55-.15h-16.04c-.2 0-.38.05-.55.15l-6.42 3.85c-.32.2-.51.54-.51.91v1.93c0 .37.2.72.51.91l6.42 3.85Zm0-36.5.55.15h16.04c.2 0 .38-.05.55-.15l6.41-3.85c.32-.19.52-.54.52-.91v-1.93c0-.37-.2-.72-.52-.91l-6.41-3.85c-.17-.1-.36-.15-.55-.15h-16.04c-.2 0-.38.05-.55.15l-6.42 3.85c-.32.2-.51.54-.51.91v1.93c0 .37.2.72.51.91l6.42 3.85Zm0-36.48.55.15h16.04c.2 0 .38-.05.55-.15l6.41-3.85c.32-.19.52-.54.52-.91v-1.93c0-.37-.2-.72-.52-.91l-6.41-3.85c-.17-.1-.36-.15-.55-.15h-16.04c-.2 0-.38.05-.55.15l-6.42 3.85c-.32.2-.51.54-.51.91v1.93c0 .37.2.72.51.91l6.42 3.85Zm-4.56 57.38c.1-.16.16-.36.16-.56v-16.04c0-.2-.05-.38-.15-.55l-3.85-6.41c-.2-.33-.54-.52-.92-.52h-1.92c-.37 0-.72.2-.91.52l-3.85 6.41c-.1.17-.16.36-.16.55v16.04c0 .2.06.38.16.55l3.85 6.41c.19.33.54.52.91.52h1.92c.38 0 .73-.2.92-.52l3.84-6.4Zm0-36.09c.1-.16.16-.35.16-.56v-16.04c0-.2-.05-.38-.15-.55l-3.85-6.41c-.2-.32-.54-.52-.92-.52h-1.92c-.37 0-.72.2-.91.52l-3.85 6.41c-.1.17-.16.36-.16.55v16.04c0 .2.06.38.16.55l3.85 6.42c.19.32.54.51.91.51h1.92c.38 0 .73-.2.92-.52l3.84-6.4Z" style="fill:#2cff00"/><path d="M233.14 356.87v-16.04l3.85-6.42h1.93l3.85 6.42v16.04l-3.85 6.42h-1.93l-3.85-6.42Z" style="fill:#2c4343"/><path d="M243.68 321.34c.1-.16.15-.35.15-.56v-16.04c0-.2-.05-.38-.15-.55l-3.85-6.41a1.07 1.07 0 0 0-.91-.52h-1.93c-.37 0-.72.2-.91.52l-3.85 6.41c-.1.17-.15.36-.15.55v16.04c0 .2.05.38.15.55l3.85 6.42c.2.32.54.51.91.51h1.93c.37 0 .72-.2.91-.52l3.85-6.4Zm-32.59 51.84c.59 0 0 0 0 0-.2 0-.38-.05-.55-.15l-6.42-3.85a1.06 1.06 0 0 1-.51-.91v-1.93c0-.37.2-.72.51-.91l6.42-3.85c.17-.1.36-.15.55-.15h16.04c.2 0 .38.05.55.15l6.41 3.85c.32.2.52.54.52.91v1.93c0 .37-.2.72-.52.91l-6.41 3.85c-.17.1-.36.15-.55.15h-16.04Zm-.55-36.65c.14.09.55.15.55.15h16.04c.2 0 .38-.05.55-.15l6.41-3.85c.32-.19.52-.54.52-.91v-1.93c0-.37-.2-.72-.52-.91l-6.41-3.85c-.17-.1-.36-.15-.55-.15h-16.04c-.2 0-.38.05-.55.15l-6.42 3.85c-.32.2-.51.54-.51.91v1.93c0 .37.2.72.51.91l6.42 3.85Zm-.01-36.48-6.4-3.85a1.04 1.04 0 0 1-.52-.91v-1.93c0-.37.2-.72.51-.91l6.42-3.85c.17-.1.36-.15.55-.15h16.04c.2 0 .38.05.55.15l6.41 3.85c.33.2.52.54.52.91v1.93c0 .37-.2.72-.52.91l-6.41 3.85c-.17.1-.36.15-.55.15h-16.04l-.56-.15Zm-16.15 56.82c0 .2.06.38.16.55l3.84 6.41c.2.33.54.52.92.52h1.92c.38 0 .73-.2.92-.52l3.85-6.41.15-.55v-16.04c0-.2-.05-.38-.15-.55l-3.85-6.41c-.2-.33-.54-.52-.92-.52h-1.92c-.38 0-.72.2-.92.52l-3.84 6.41c-.1.17-.16.36-.16.55v16.04Z" style="fill:#2cff00"/><path d="M195.45 320.78v-16.04l3.85-6.42h1.92l3.85 6.42v16.04l-3.85 6.42h-1.92l-3.85-6.42Z" style="fill:#2c4343"/><path d="M305.86 356.87c0 .2.05.38.15.55l3.85 6.41c.2.33.54.52.91.52h1.93c.38 0 .72-.2.92-.52l3.84-6.41.16-.55v-16.04c0-.2-.06-.38-.16-.55l-3.84-6.41c-.2-.33-.54-.52-.92-.52h-1.93c-.37 0-.72.2-.9.52l-3.86 6.41c-.1.17-.15.36-.15.55v16.04Z" style="fill:#2cff00"/><path d="M306.93 321.14V305.1l3.84-6.42h1.93l3.85 6.42v16.04l-3.85 6.42h-1.93l-3.84-6.42Z" style="fill:#2c4343"/><path d="M284.32 373.38c.15.09.55.15.55.15h16.04c.2 0 .38-.05.55-.15l6.42-3.85c.32-.2.51-.54.51-.91v-1.93c0-.37-.2-.72-.51-.91l-6.42-3.85c-.17-.1-.36-.15-.55-.15h-16.04c-.2 0-.38.05-.55.15l-6.41 3.85c-.33.19-.52.54-.52.91v1.93c0 .37.2.72.52.91l6.41 3.85Zm0-36.5.55.15h16.04c.2 0 .38-.05.55-.15l6.42-3.85c.32-.2.51-.54.51-.91v-1.93c0-.37-.2-.72-.51-.91l-6.42-3.85c-.17-.1-.36-.15-.55-.15h-16.04c-.2 0-.38.05-.55.15l-6.41 3.85c-.33.19-.52.54-.52.91v1.93c0 .37.2.72.52.91l6.41 3.85Zm0-36.48.55.15h16.04c.2 0 .38-.05.55-.15l6.42-3.85c.32-.2.51-.54.51-.91v-1.93c0-.37-.2-.72-.51-.91l-6.42-3.85c-.17-.1-.36-.15-.55-.15h-16.04c-.2 0-.38.05-.55.15l-6.41 3.85c-.33.19-.52.54-.52.91v1.93c0 .37.2.72.52.91l6.41 3.85Z" style="fill:#2cff00"/><path d="M269.23 357.23v-16.04l3.85-6.42h1.93l3.85 6.42v16.04l-3.85 6.41h-1.93l-3.85-6.41Z" style="fill:#2c4343"/><path d="M279.77 321.69c.1-.16.15-.36.15-.56v-16.04c0-.2-.05-.38-.15-.55l-3.85-6.41c-.2-.33-.54-.52-.91-.52h-1.93c-.37 0-.72.2-.91.52l-3.85 6.41c-.1.17-.15.36-.15.55v16.04c0 .2.05.38.15.55l3.85 6.41c.19.33.54.52.91.52h1.93c.37 0 .72-.2.91-.52l3.85-6.4Z" style="fill:#2cff00"/><path d="M367.88 357.23v-16.04l3.85-6.42h1.92l3.85 6.42v16.04l-3.85 6.41h-1.92l-3.85-6.41Zm0-36.09V305.1l3.85-6.42h1.92l3.85 6.42v16.04l-3.85 6.42h-1.92l-3.85-6.42Z" style="fill:#2c4343"/><path d="M345.27 373.4c.15.08.55.14.55.14h16.04c.2 0 .38-.05.55-.15l6.42-3.85c.32-.2.51-.54.51-.91v-1.93c0-.37-.2-.72-.51-.91l-6.42-3.85c-.17-.1-.36-.15-.55-.15h-16.04c-.2 0-.38.05-.55.15l-6.41 3.85c-.32.19-.52.54-.52.91v1.93c0 .37.2.72.52.91l6.41 3.85Zm0-36.5.55.14h16.04c.2 0 .38-.05.55-.15l6.42-3.85c.32-.2.51-.54.51-.91v-1.93c0-.37-.2-.72-.51-.91l-6.42-3.85c-.17-.1-.36-.15-.55-.15h-16.04c-.2 0-.38.05-.55.15l-6.41 3.85c-.32.19-.52.54-.52.91v1.93c0 .37.2.72.52.91l6.41 3.85Zm.55-48.1c-.2 0-.38.06-.55.16l-6.41 3.85c-.32.19-.52.54-.52.91v1.93c0 .37.2.72.52.91l6.41 3.85.55.15h16.04c.2 0 .38-.05.55-.15l6.42-3.85c.32-.2.51-.54.51-.91v-1.93c0-.37-.2-.72-.51-.91l-6.42-3.85c-.17-.1-.36-.15-.55-.15h-16.04Zm-5.1 68.99c.1-.17.15-.36.15-.56v-16.04c0-.2-.05-.38-.15-.55l-3.85-6.42c-.2-.32-.54-.51-.91-.51h-1.93c-.37 0-.72.2-.91.52l-3.85 6.41c-.1.17-.15.36-.15.55v16.04c0 .2.05.38.15.55l3.85 6.41c.2.32.54.52.91.52h1.93c.37 0 .72-.2.91-.52l3.85-6.4Zm0-36.09c.1-.16.15-.36.15-.56V305.1c0-.2-.05-.38-.15-.55l-3.85-6.41c-.2-.33-.54-.52-.91-.52h-1.93c-.37 0-.72.2-.91.52l-3.85 6.41c-.1.17-.15.36-.15.55v16.04c0 .2.05.38.15.55l3.85 6.41c.2.33.54.52.91.52h1.93c.37 0 .72-.2.91-.52l3.85-6.4Z" style="fill:#2cf400"/><circle cx="397.5" cy="363.64" r="9" style="fill:#e00"/></svg>