<svg xmlns="http://www.w3.org/2000/svg" viewBox="0 0 64 64"><path d="M58.75 20.78v27.67c0 5.7-4.63 10.33-10.33 10.33H15.46c-5.7 0-10.34-4.63-10.34-10.33V20.78h53.63Z" style="fill:#819064"/><path d="M6.19 20h51.5v28.45a9.27 9.27 0 0 1-9.27 9.27H15.46a9.27 9.27 0 0 1-9.27-9.27V20Z" style="fill:#fffa00"/><path d="M48.42 6.15c5.65 0 10.24 4.55 10.33 10.18v2.47H5.12v-2.47A10.33 10.33 0 0 1 15.44 6.15h32.98Z" style="fill:#fe80fa"/><path d="M5.12 16.84h53.63v5H5.12z" style="fill:#959090"/><path d="M5.12 16.84h53.63v5H5.12z" style="fill:#959090"/><path d="M55.94 32.35c0-2.97-1.7-5.38-3.79-5.38H11.72c-2.09 0-3.78 2.41-3.78 5.38V48.4c0 2.97 1.7 5.38 3.78 5.38h40.43c2.1 0 3.79-2.41 3.79-5.38V32.35Z" style="fill:#121d19"/><path d="M43 31h2.5v15.5H43zM30 46.48V31h2.5v12.98h7v2.5H30Zm-13 0V31h10v3.5h-7.5v9.48H27v2.5H17Z" style="fill:#eeeef4"/><path d="M53 50v1a.5.5 0 0 1-.5.5h-7a.5.5 0 0 1-.5-.5v-1c0-.28.22-.5.5-.5h7c.28 0 .5.22.5.5Z" style="fill:#2cf400"/></svg>