<?xml version="1.0" encoding="UTF-8" standalone="no"?>
<!DOCTYPE svg PUBLIC "-//W3C//DTD SVG 1.1//EN" "http://www.w3.org/Graphics/SVG/1.1/DTD/svg11.dtd">
<svg width="100%" height="100%" viewBox="0 0 64 64" version="1.1" xmlns="http://www.w3.org/2000/svg" xmlns:xlink="http://www.w3.org/1999/xlink" xml:space="preserve" xmlns:serif="http://www.serif.com/" style="fill-rule:evenodd;clip-rule:evenodd;stroke-linejoin:round;stroke-miterlimit:2;">
    <g transform="matrix(1,0,0,1,-1728,-2768)">
        <g id="add" transform="matrix(0.5,0,0,0.5,880,1400)">
            <rect x="1696" y="2736" width="128" height="128" style="fill:none;"/>
            <g transform="matrix(2,0,0,2,-1760,-2800)">
                <path d="M1765.75,2805.75L1783.88,2805.75L1783.88,2794.25L1765.75,2794.25C1765.75,2794.25 1765.75,2776.12 1765.75,2776.12L1754.25,2776.12L1754.25,2794.25C1754.25,2794.25 1736.12,2794.25 1736.12,2794.25L1736.12,2805.75L1754.25,2805.75C1754.25,2805.75 1754.25,2823.88 1754.25,2823.88L1765.75,2823.88L1765.75,2805.75Z"/>
            </g>
        </g>
    </g>
</svg>
