<?xml version="1.0" encoding="UTF-8" standalone="no"?>
<!DOCTYPE svg PUBLIC "-//W3C//DTD SVG 1.1//EN" "http://www.w3.org/Graphics/SVG/1.1/DTD/svg11.dtd">
<svg width="100%" height="100%" viewBox="0 0 64 64" version="1.1" xmlns="http://www.w3.org/2000/svg" xmlns:xlink="http://www.w3.org/1999/xlink" xml:space="preserve" xmlns:serif="http://www.serif.com/" style="fill-rule:evenodd;clip-rule:evenodd;stroke-linejoin:round;stroke-miterlimit:2;">
    <g transform="matrix(1,0,0,1,-2444,-3072)">
        <g id="channelbook-view" transform="matrix(0.5,0,0,0.5,1520,1552)">
            <rect x="1848" y="3040" width="128" height="128" style="fill:none;"/>
            <g transform="matrix(2,0,0,2,-3168,-3094)">
                <path d="M2512,3081.97C2510.23,3082.79 2509,3084.58 2509,3086.66L2509,3119.34C2509,3122.19 2511.31,3124.5 2514.16,3124.5L2565.84,3124.5C2568.69,3124.5 2571,3122.19 2571,3119.34L2571,3086.66C2571,3084.58 2569.77,3082.79 2568,3081.97L2568,3120.74L2512,3120.74L2512,3081.97ZM2515,3117.17C2518.14,3116.89 2523.02,3116.5 2526,3116.5C2526.95,3116.5 2528.09,3116.54 2529.31,3116.6C2530.27,3116.64 2531.33,3116.71 2532.37,3116.79C2535.05,3116.98 2537.63,3117.22 2539,3117.35L2539,3081.45C2539,3081.45 2532.39,3080 2529.04,3080C2525.04,3080 2515,3081.45 2515,3081.45L2515,3117.17ZM2541,3117.35C2542.37,3117.22 2544.95,3116.98 2547.63,3116.79C2548.67,3116.71 2549.73,3116.64 2550.69,3116.6C2551.91,3116.54 2553.05,3116.5 2554,3116.5C2556.98,3116.5 2561.86,3116.89 2565,3117.17L2565,3081.45C2565,3081.45 2554.96,3080 2550.96,3080C2547.61,3080 2541,3081.45 2541,3081.45L2541,3117.35ZM2536.5,3109.5C2536.5,3108.4 2535.6,3107.5 2534.5,3107.5L2520.5,3107.5C2519.4,3107.5 2518.5,3108.4 2518.5,3109.5C2518.5,3110.6 2519.4,3111.5 2520.5,3111.5L2534.5,3111.5C2535.6,3111.5 2536.5,3110.6 2536.5,3109.5ZM2561.5,3109.5C2561.5,3108.4 2560.6,3107.5 2559.5,3107.5L2545.5,3107.5C2544.4,3107.5 2543.5,3108.4 2543.5,3109.5C2543.5,3110.6 2544.4,3111.5 2545.5,3111.5L2559.5,3111.5C2560.6,3111.5 2561.5,3110.6 2561.5,3109.5ZM2536.5,3102.5C2536.5,3101.4 2535.6,3100.5 2534.5,3100.5L2520.5,3100.5C2519.4,3100.5 2518.5,3101.4 2518.5,3102.5C2518.5,3103.6 2519.4,3104.5 2520.5,3104.5L2534.5,3104.5C2535.6,3104.5 2536.5,3103.6 2536.5,3102.5ZM2561.5,3102.5C2561.5,3101.4 2560.6,3100.5 2559.5,3100.5L2545.5,3100.5C2544.4,3100.5 2543.5,3101.4 2543.5,3102.5C2543.5,3103.6 2544.4,3104.5 2545.5,3104.5L2559.5,3104.5C2560.6,3104.5 2561.5,3103.6 2561.5,3102.5ZM2536.5,3095.5C2536.5,3094.4 2535.6,3093.5 2534.5,3093.5L2520.5,3093.5C2519.4,3093.5 2518.5,3094.4 2518.5,3095.5C2518.5,3096.6 2519.4,3097.5 2520.5,3097.5L2534.5,3097.5C2535.6,3097.5 2536.5,3096.6 2536.5,3095.5ZM2561.5,3095.5C2561.5,3094.4 2560.6,3093.5 2559.5,3093.5L2545.5,3093.5C2544.4,3093.5 2543.5,3094.4 2543.5,3095.5C2543.5,3096.6 2544.4,3097.5 2545.5,3097.5L2559.5,3097.5C2560.6,3097.5 2561.5,3096.6 2561.5,3095.5ZM2536.5,3088.5C2536.5,3087.4 2535.6,3086.5 2534.5,3086.5L2520.5,3086.5C2519.4,3086.5 2518.5,3087.4 2518.5,3088.5C2518.5,3089.6 2519.4,3090.5 2520.5,3090.5L2534.5,3090.5C2535.6,3090.5 2536.5,3089.6 2536.5,3088.5ZM2561.5,3088.5C2561.5,3087.4 2560.6,3086.5 2559.5,3086.5L2545.5,3086.5C2544.4,3086.5 2543.5,3087.4 2543.5,3088.5C2543.5,3089.6 2544.4,3090.5 2545.5,3090.5L2559.5,3090.5C2560.6,3090.5 2561.5,3089.6 2561.5,3088.5Z"/>
            </g>
        </g>
    </g>
</svg>
