<?xml version="1.0" encoding="UTF-8" standalone="no"?>
<!DOCTYPE svg PUBLIC "-//W3C//DTD SVG 1.1//EN" "http://www.w3.org/Graphics/SVG/1.1/DTD/svg11.dtd">
<svg width="100%" height="100%" viewBox="0 0 64 64" version="1.1" xmlns="http://www.w3.org/2000/svg" xmlns:xlink="http://www.w3.org/1999/xlink" xml:space="preserve" xmlns:serif="http://www.serif.com/" style="fill-rule:evenodd;clip-rule:evenodd;stroke-linejoin:round;stroke-miterlimit:2;">
    <g transform="matrix(1,0,0,1,-2380,-3072)">
        <g id="crypted" transform="matrix(0.5,0,0,0.5,1456,1552)">
            <rect x="1848" y="3040" width="128" height="128" style="fill:none;"/>
            <g transform="matrix(2,0,0,2,-2912,-3104)">
                <path d="M2435.01,3090.08C2435.01,3084.52 2430.49,3080 2424.93,3080L2391.09,3080C2385.52,3080 2381.01,3084.52 2381.01,3090.08L2381.01,3117.92C2381.01,3123.48 2385.52,3128 2391.09,3128L2424.93,3128C2430.49,3128 2435.01,3123.48 2435.01,3117.92L2435.01,3090.08ZM2410.85,3086.99L2410.85,3082.98L2405.06,3082.98L2405.06,3087.03C2400.86,3087.59 2396.95,3089.29 2395.11,3092.07C2392.1,3096.58 2396.01,3102.88 2402.3,3105.06C2403.06,3105.32 2404.02,3105.57 2405.06,3105.82L2405.06,3116.72C2402.45,3116.14 2400.52,3114.3 2398.9,3112.92L2394.01,3115.71L2396.1,3117.53C2398.51,3119.59 2401.52,3120.8 2405.06,3121.23L2405.06,3124.98L2410.85,3124.98L2410.85,3121.2C2419.08,3120.05 2424.9,3114.34 2420.5,3108.22C2419.73,3107.16 2418.68,3106.19 2417.5,3105.34C2415.76,3104.08 2413.34,3103.35 2410.85,3102.7L2410.85,3091.5C2413.49,3092.07 2415.43,3093.93 2417.06,3095.31L2421.95,3092.53L2419.86,3090.7C2417.44,3088.64 2414.41,3087.42 2410.85,3086.99ZM2410.85,3107.42L2410.85,3116.5C2414.5,3115.61 2417.17,3113.37 2415.22,3110.28C2414.41,3109.01 2412.77,3108.11 2410.85,3107.42ZM2405.06,3091.74C2401.44,3092.64 2398.83,3094.89 2400.74,3097.99C2401.61,3099.4 2403.18,3100.32 2405.06,3101.03L2405.06,3091.74Z"/>
            </g>
        </g>
    </g>
</svg>
