<?xml version="1.0" encoding="UTF-8" standalone="no"?>
<!DOCTYPE svg PUBLIC "-//W3C//DTD SVG 1.1//EN" "http://www.w3.org/Graphics/SVG/1.1/DTD/svg11.dtd">
<svg width="100%" height="100%" viewBox="0 0 64 64" version="1.1" xmlns="http://www.w3.org/2000/svg" xmlns:xlink="http://www.w3.org/1999/xlink" xml:space="preserve" xmlns:serif="http://www.serif.com/" style="fill-rule:evenodd;clip-rule:evenodd;stroke-linejoin:round;stroke-miterlimit:2;">
    <g transform="matrix(1,0,0,1,-1576,-2768)">
        <g id="delete" transform="matrix(0.5,0,0,0.5,804,1400)">
            <rect x="1544" y="2736" width="128" height="128" style="fill:none;"/>
            <g transform="matrix(2,0,0,2,-1608,-2800)">
                <path d="M1627.89,2787.89L1628.6,2787.18L1620.82,2779.4L1608,2792.22C1608,2792.22 1595.18,2779.4 1595.18,2779.4L1587.4,2787.18L1600.22,2800C1600.22,2800 1587.4,2812.82 1587.4,2812.82L1595.18,2820.6L1608,2807.78L1620.82,2820.6L1628.6,2812.82L1615.78,2800C1615.78,2800 1627.89,2787.89 1627.89,2787.89Z"/>
            </g>
        </g>
    </g>
</svg>
