<?xml version="1.0" encoding="UTF-8" standalone="no"?>
<!DOCTYPE svg PUBLIC "-//W3C//DTD SVG 1.1//EN" "http://www.w3.org/Graphics/SVG/1.1/DTD/svg11.dtd">
<svg width="100%" height="100%" viewBox="0 0 64 64" version="1.1" xmlns="http://www.w3.org/2000/svg" xmlns:xlink="http://www.w3.org/1999/xlink" xml:space="preserve" xmlns:serif="http://www.serif.com/" style="fill-rule:evenodd;clip-rule:evenodd;stroke-linejoin:round;stroke-miterlimit:2;">
    <g transform="matrix(1,0,0,1,-2892,-3072)">
        <g id="edit-tunersets" transform="matrix(0.5,0,0,0.5,1968,1552)">
            <rect x="1848" y="3040" width="128" height="128" style="fill:none;"/>
            <g transform="matrix(2,0,0,2,-3936,-3104)">
                <path d="M2924.03,3122.52C2919.24,3119.63 2916,3114.11 2916,3107.78C2916,3098.46 2923.01,3090.9 2931.65,3090.9C2940.28,3090.9 2947.3,3098.46 2947.3,3107.78C2947.3,3117.09 2940.28,3124.65 2931.65,3124.65C2930.72,3124.65 2929.82,3124.57 2928.94,3124.4L2928.75,3134.9L2923.8,3134.76L2924.03,3122.52ZM2898.06,3098.78C2898.06,3098.78 2898.08,3113.75 2898.08,3113.75C2897.21,3114.16 2896.37,3114.67 2895.65,3115.31C2891.29,3119.16 2891.3,3125.42 2895.67,3129.28C2896.64,3130.14 2897.81,3130.78 2898.99,3131.25L2900.36,3130.32L2900.35,3123.08C2900.35,3122.19 2901.24,3121.52 2902.24,3121.52C2902.24,3121.52 2905.01,3121.53 2905.01,3121.53C2905.55,3121.53 2906.08,3121.69 2906.43,3122C2906.73,3122.27 2906.91,3122.68 2906.91,3123.09C2906.91,3123.09 2906.92,3130.11 2906.92,3130.11L2908.34,3131.02C2909.31,3130.57 2910.28,3130.02 2911.1,3129.3C2915.46,3125.45 2915.45,3119.19 2911.08,3115.33C2910.36,3114.69 2909.51,3114.18 2908.64,3113.76L2908.62,3098.79C2909.49,3098.38 2910.33,3097.87 2911.05,3097.23C2915.41,3093.37 2915.4,3087.12 2911.03,3083.26C2910.14,3082.46 2909.07,3081.87 2907.99,3081.41L2906.6,3082.33L2906.61,3089.12C2906.61,3090 2905.77,3090.63 2904.78,3090.63C2904.78,3090.63 2901.88,3090.62 2901.88,3090.62C2900.89,3090.62 2900.04,3089.99 2900.04,3089.11C2900.04,3089.11 2900.03,3082.32 2900.03,3082.32L2898.64,3081.4C2897.56,3081.86 2896.49,3082.45 2895.6,3083.24C2891.24,3087.09 2891.25,3093.35 2895.62,3097.21C2896.35,3097.85 2897.19,3098.36 2898.06,3098.78ZM2942.27,3123.81L2941.75,3123.35L2936.3,3126.79L2936.96,3128.78L2942.94,3127.58C2944.22,3128.83 2945.76,3129.06 2946.81,3128.36C2946.81,3128.37 2954.2,3123.78 2954.2,3123.78C2954.99,3123.3 2955.53,3122.34 2955.6,3121.07C2955.65,3120.27 2955.38,3119.83 2955.11,3119.59C2954.87,3119.37 2954.57,3119.24 2954.19,3119.25C2953.86,3119.25 2953.38,3119.41 2952.86,3119.6C2952.62,3119.68 2952.35,3119.77 2952.09,3119.8C2951.95,3119.82 2951.81,3119.83 2951.68,3119.76C2950.66,3119.2 2949.66,3119.23 2948.89,3119.71L2942.27,3123.81Z" style="fill-rule:nonzero;"/>
            </g>
        </g>
    </g>
</svg>
