<?xml version="1.0" encoding="UTF-8" standalone="no"?>
<!DOCTYPE svg PUBLIC "-//W3C//DTD SVG 1.1//EN" "http://www.w3.org/Graphics/SVG/1.1/DTD/svg11.dtd">
<svg width="100%" height="100%" viewBox="0 0 64 64" version="1.1" xmlns="http://www.w3.org/2000/svg" xmlns:xlink="http://www.w3.org/1999/xlink" xml:space="preserve" xmlns:serif="http://www.serif.com/" style="fill-rule:evenodd;clip-rule:evenodd;stroke-linejoin:round;stroke-miterlimit:2;">
    <g transform="matrix(1,0,0,1,-2892,-3072)">
        <g id="edit-tunersets" transform="matrix(0.5,0,0,0.5,1968,1552)">
            <rect x="1848" y="3040" width="128" height="128" style="fill:none;"/>
            <g transform="matrix(2,0,0,2,-3936,-3104)">
                <path d="M2951.18,3107.28L2951.5,3077.01L2945.51,3076.98L2945.18,3107.16C2942.47,3108 2940.8,3109.96 2940.85,3111.99C2940.85,3111.98 2940.7,3127.74 2940.7,3127.74C2940.68,3129.17 2941.48,3130.58 2943.01,3131.59C2945.76,3133.42 2950.3,3133.43 2953.05,3131.6C2954.55,3130.61 2955.34,3129.24 2955.35,3127.84C2955.35,3127.84 2955.5,3112.06 2955.5,3112.06C2955.53,3110.86 2954.98,3109.66 2953.88,3108.7L2953.87,3108.69C2953.14,3108.08 2952.22,3107.6 2951.18,3107.28Z" style="fill-rule:nonzero;"/>
            </g>
            <g transform="matrix(2,0,0,2,-3936,-3104)">
                <path d="M2922.71,3100.44C2922.71,3100.44 2922.73,3115.41 2922.73,3115.41C2921.86,3115.83 2921.02,3116.33 2920.3,3116.97C2915.94,3120.83 2915.95,3127.08 2920.32,3130.95C2921.29,3131.8 2922.45,3132.44 2923.64,3132.91L2925.01,3131.98L2925,3124.74C2924.99,3123.86 2925.89,3123.18 2926.89,3123.18C2926.89,3123.18 2929.66,3123.19 2929.66,3123.19C2930.19,3123.19 2930.73,3123.35 2931.08,3123.66C2931.38,3123.93 2931.56,3124.34 2931.56,3124.76C2931.56,3124.76 2931.57,3131.77 2931.57,3131.77L2932.99,3132.68C2933.96,3132.23 2934.93,3131.68 2935.75,3130.96C2940.11,3127.11 2940.1,3120.86 2935.73,3116.99C2935,3116.35 2934.16,3115.84 2933.29,3115.42L2933.27,3100.45C2934.14,3100.04 2934.98,3099.53 2935.7,3098.89C2940.06,3095.04 2940.05,3088.78 2935.68,3084.92C2934.79,3084.13 2933.72,3083.53 2932.64,3083.07L2931.24,3083.99L2931.26,3090.79C2931.26,3091.66 2930.42,3092.29 2929.43,3092.29C2929.43,3092.29 2926.53,3092.28 2926.53,3092.28C2925.54,3092.28 2924.69,3091.65 2924.69,3090.77C2924.69,3090.77 2924.68,3083.98 2924.68,3083.98L2923.29,3083.06C2922.21,3083.52 2921.14,3084.11 2920.25,3084.9C2915.89,3088.75 2915.9,3095.01 2920.27,3098.87C2921,3099.51 2921.84,3100.03 2922.71,3100.44Z" style="fill-rule:nonzero;"/>
            </g>
            <g transform="matrix(2,0,0,2,-3936,-3104)">
                <path d="M2901.77,3105.77L2901.77,3105.77C2900.97,3105.93 2900.23,3106.22 2899.49,3106.52C2899.13,3106.67 2898.89,3107.03 2898.88,3107.42C2898.85,3108.6 2898.95,3110 2898.88,3111.08C2898.86,3111.32 2898.83,3111.53 2898.79,3111.72C2898.77,3111.81 2898.73,3111.92 2898.71,3111.98C2898.65,3111.99 2898.53,3112.03 2898.44,3112.03C2898.25,3112.06 2898.03,3112.06 2897.79,3112.05C2896.72,3112.02 2895.36,3111.76 2894.2,3111.64C2893.8,3111.6 2893.42,3111.8 2893.22,3112.15C2892.77,3112.97 2892.41,3113.83 2892.14,3114.75C2892.03,3115.13 2892.16,3115.55 2892.46,3115.8C2893.36,3116.54 2894.46,3117.33 2895.21,3118.07C2895.41,3118.26 2895.58,3118.45 2895.7,3118.63C2895.73,3118.67 2895.76,3118.73 2895.78,3118.77C2895.75,3118.82 2895.7,3118.93 2895.66,3119C2895.56,3119.16 2895.42,3119.33 2895.27,3119.5C2894.57,3120.29 2893.51,3121.17 2892.68,3122.02C2892.41,3122.3 2892.32,3122.72 2892.47,3123.09C2892.83,3123.98 2893.33,3124.8 2893.87,3125.58C2894.1,3125.91 2894.51,3126.07 2894.9,3125.99C2896.04,3125.75 2897.35,3125.38 2898.38,3125.24C2898.61,3125.21 2898.82,3125.19 2899.01,3125.2C2899.1,3125.2 2899.23,3125.22 2899.29,3125.23C2899.31,3125.27 2899.35,3125.33 2899.37,3125.38C2899.45,3125.59 2899.52,3125.84 2899.57,3126.12C2899.77,3127.17 2899.83,3128.56 2899.98,3129.73C2900.03,3130.12 2900.31,3130.44 2900.68,3130.56C2901.55,3130.82 2902.46,3130.93 2903.39,3131C2903.79,3131.03 2904.17,3130.81 2904.36,3130.45C2904.88,3129.41 2905.41,3128.13 2905.96,3127.21C2906.11,3126.97 2906.26,3126.76 2906.41,3126.59C2906.44,3126.56 2906.49,3126.51 2906.53,3126.49C2906.58,3126.5 2906.71,3126.52 2906.79,3126.56C2906.98,3126.62 2907.18,3126.72 2907.39,3126.84C2908.36,3127.38 2909.5,3128.25 2910.52,3128.86C2910.86,3129.06 2911.28,3129.05 2911.61,3128.83C2912.36,3128.3 2913.04,3127.66 2913.66,3126.99C2913.93,3126.7 2914.01,3126.27 2913.85,3125.9C2913.36,3124.82 2912.64,3123.56 2912.22,3122.53C2912.13,3122.3 2912.06,3122.08 2912.01,3121.89C2911.99,3121.8 2911.98,3121.68 2911.97,3121.61C2912.02,3121.57 2912.12,3121.49 2912.2,3121.45C2912.37,3121.34 2912.58,3121.25 2912.81,3121.15C2913.84,3120.73 2915.25,3120.37 2916.37,3119.96C2916.74,3119.82 2917,3119.47 2917.02,3119.08C2917.03,3118.82 2917.12,3118.58 2917.12,3118.32C2917.12,3117.66 2917.01,3117.01 2916.91,3116.38C2916.85,3115.98 2916.56,3115.66 2916.18,3115.56C2915.03,3115.26 2913.59,3115.04 2912.51,3114.72C2912.27,3114.65 2912.05,3114.58 2911.87,3114.49C2911.79,3114.45 2911.68,3114.38 2911.63,3114.35C2911.63,3114.28 2911.63,3114.16 2911.64,3114.07C2911.67,3113.86 2911.72,3113.64 2911.79,3113.4C2912.11,3112.32 2912.71,3110.98 2913.08,3109.85C2913.21,3109.48 2913.1,3109.06 2912.8,3108.8C2912.1,3108.18 2911.35,3107.63 2910.53,3107.17C2910.18,3106.98 2909.76,3107.01 2909.44,3107.24C2908.49,3107.96 2907.44,3108.95 2906.54,3109.59C2906.34,3109.73 2906.15,3109.85 2905.97,3109.94C2905.9,3109.98 2905.79,3110.02 2905.73,3110.04C2905.68,3110 2905.59,3109.93 2905.53,3109.87C2905.4,3109.73 2905.26,3109.55 2905.12,3109.36C2904.49,3108.46 2903.85,3107.2 2903.21,3106.21C2903.01,3105.89 2902.64,3105.72 2902.27,3105.75C2902.18,3105.75 2901.91,3105.74 2901.77,3105.77ZM2903.96,3113.74C2906.38,3113.74 2908.34,3115.7 2908.34,3118.12C2908.34,3120.55 2906.38,3122.51 2903.96,3122.51C2901.54,3122.51 2899.58,3120.55 2899.58,3118.12C2899.58,3115.7 2901.54,3113.74 2903.96,3113.74Z" style="fill-rule:nonzero;"/>
            </g>
        </g>
    </g>
</svg>
