<?xml version="1.0" encoding="UTF-8" standalone="no"?>
<!DOCTYPE svg PUBLIC "-//W3C//DTD SVG 1.1//EN" "http://www.w3.org/Graphics/SVG/1.1/DTD/svg11.dtd">
<svg width="100%" height="100%" viewBox="0 0 128 128" version="1.1" xmlns="http://www.w3.org/2000/svg" xmlns:xlink="http://www.w3.org/1999/xlink" xml:space="preserve" xmlns:serif="http://www.serif.com/" style="fill-rule:evenodd;clip-rule:evenodd;stroke-linejoin:round;stroke-miterlimit:2;">
    <g transform="matrix(1,0,0,1,-480,-3648)">
        <rect id="file" x="480" y="3648" width="128" height="128" style="fill:none;"/>
        <g id="file1" serif:id="file">
            <path d="M591.991,3676L567.991,3652L503.671,3652C499.432,3652 495.991,3655.44 495.991,3659.68L495.991,3764.32C495.991,3768.56 499.432,3772 503.671,3772L584.311,3772C588.55,3772 591.991,3768.56 591.991,3764.32L591.991,3676ZM572.991,3744L514.991,3744L514.991,3748L572.991,3748L572.991,3744ZM572.991,3731L514.991,3731L514.991,3735L572.991,3735L572.991,3731ZM572.991,3717.98L514.991,3717.98L514.991,3721.98L572.991,3721.98L572.991,3717.98ZM572.991,3707L514.991,3707L514.991,3711L572.991,3711L572.991,3707ZM572.991,3695L514.991,3695L514.991,3699L572.991,3699L572.991,3695ZM572.991,3682L514.991,3682L514.991,3686L572.991,3686L572.991,3682ZM570.627,3673.04L569.627,3655.04L588.842,3674.26L570.627,3673.04Z"/>
        </g>
    </g>
</svg>
