<?xml version="1.0" encoding="UTF-8" standalone="no"?>
<!DOCTYPE svg PUBLIC "-//W3C//DTD SVG 1.1//EN" "http://www.w3.org/Graphics/SVG/1.1/DTD/svg11.dtd">
<svg width="100%" height="100%" viewBox="0 0 64 64" version="1.1" xmlns="http://www.w3.org/2000/svg" xmlns:xlink="http://www.w3.org/1999/xlink" xml:space="preserve" xmlns:serif="http://www.serif.com/" style="fill-rule:evenodd;clip-rule:evenodd;stroke-linejoin:round;stroke-miterlimit:2;">
    <g transform="matrix(1,0,0,1,-2780,-3072)">
        <g id="list-prefs-menu" transform="matrix(0.5,0,0,0.5,1856,1552)">
            <rect x="1848" y="3040" width="128" height="128" style="fill:none;"/>
            <g transform="matrix(2,0,0,2,-3712,-3104)">
                <path d="M2836.25,3104.38C2836.25,3101.99 2834.31,3100.06 2831.92,3100.06L2792.08,3100.06C2789.69,3100.06 2787.75,3101.99 2787.75,3104.38C2787.75,3106.77 2789.69,3108.71 2792.08,3108.71L2831.92,3108.71C2834.31,3108.71 2836.25,3106.77 2836.25,3104.38Z"/>
            </g>
            <g transform="matrix(2,0,0,2,-3712,-3104)">
                <path d="M2836.25,3116.9C2836.25,3114.51 2834.31,3112.58 2831.92,3112.58L2792.08,3112.58C2789.69,3112.58 2787.75,3114.51 2787.75,3116.9C2787.75,3119.29 2789.69,3121.23 2792.08,3121.23C2792.08,3121.23 2831.92,3121.23 2831.92,3121.23C2834.31,3121.23 2836.25,3119.29 2836.25,3116.9Z"/>
            </g>
            <g transform="matrix(2,0,0,2,-3712,-3104)">
                <path d="M2836.25,3129.42C2836.25,3127.03 2834.31,3125.1 2831.92,3125.1L2792.08,3125.1C2789.69,3125.1 2787.75,3127.03 2787.75,3129.42C2787.75,3131.81 2789.69,3133.75 2792.08,3133.75C2792.08,3133.75 2831.92,3133.75 2831.92,3133.75C2834.31,3133.75 2836.25,3131.81 2836.25,3129.42Z"/>
            </g>
            <g transform="matrix(2,0,0,2,-3712,-3104)">
                <path d="M2793.8,3091.47L2793.8,3094.92L2799.09,3094.92L2803.38,3094.92L2803.39,3094.92L2804.38,3094.92L2804.38,3089.07C2805.22,3088.7 2806.01,3088.22 2806.72,3087.66C2808.96,3085.92 2810.07,3083.6 2810.1,3081.27C2810.12,3078.95 2809.06,3076.6 2806.86,3074.8L2806.86,3074.8C2805.97,3074.08 2804.91,3073.53 2803.83,3073.1L2802.46,3074.02L2802.4,3080.17C2802.4,3080.46 2802.23,3080.67 2802,3080.83C2801.62,3081.08 2801.1,3081.19 2800.53,3081.19L2797.68,3081.19C2797.11,3081.18 2796.59,3081.05 2796.22,3080.79C2795.98,3080.61 2795.81,3080.38 2795.81,3080.09C2795.81,3080.09 2795.88,3073.93 2795.88,3073.93L2794.53,3072.98C2793.44,3073.39 2792.37,3073.91 2791.47,3074.61C2789.23,3076.36 2788.12,3078.68 2788.1,3081C2788.07,3083.33 2789.14,3085.67 2791.34,3087.47C2792.06,3088.07 2792.9,3088.54 2793.77,3088.93C2793.79,3089.55 2793.8,3090.53 2793.8,3091.47Z"/>
            </g>
        </g>
    </g>
</svg>
