<?xml version="1.0" encoding="UTF-8" standalone="no"?>
<!DOCTYPE svg PUBLIC "-//W3C//DTD SVG 1.1//EN" "http://www.w3.org/Graphics/SVG/1.1/DTD/svg11.dtd">
<svg width="100%" height="100%" viewBox="0 0 96 64" version="1.1" xmlns="http://www.w3.org/2000/svg" xmlns:xlink="http://www.w3.org/1999/xlink" xml:space="preserve" xmlns:serif="http://www.serif.com/" style="fill-rule:evenodd;clip-rule:evenodd;stroke-linejoin:round;stroke-miterlimit:2;">
    <g transform="matrix(1,0,0,1,-2000,-3040)">
        <g id="macx-tool-menu" transform="matrix(0.75,0,0,0.5,614,1520)">
            <rect x="1848" y="3040" width="128" height="128" style="fill:none;"/>
            <g transform="matrix(1.33333,0,0,2,-818.667,-3040)">
                <path d="M2070,3073.59L2076.88,3067.03C2077.48,3066.46 2078.45,3066.46 2079.05,3067.03L2080.5,3068.41C2081.1,3068.99 2081.1,3069.91 2080.5,3070.48L2071.09,3079.45C2070.79,3079.73 2070.39,3079.88 2070,3079.88C2069.61,3079.88 2069.21,3079.73 2068.91,3079.45L2059.5,3070.48C2058.9,3069.91 2058.9,3068.99 2059.5,3068.41L2060.95,3067.03C2061.55,3066.46 2062.52,3066.46 2063.12,3067.03L2070,3073.59Z"/>
            </g>
            <g transform="matrix(1.33333,0,0,2,-818.667,-3040)">
                <path d="M2028.3,3054C2038.23,3054 2046.3,3062.07 2046.3,3072C2046.3,3081.93 2038.23,3090 2028.3,3090C2018.37,3090 2010.3,3081.93 2010.3,3072C2010.3,3062.07 2018.37,3054 2028.3,3054ZM2028.3,3056.6C2036.8,3056.6 2043.7,3063.5 2043.7,3072C2043.7,3080.5 2036.8,3087.4 2028.3,3087.4C2019.8,3087.4 2012.9,3080.5 2012.9,3072C2012.9,3063.5 2019.8,3056.6 2028.3,3056.6ZM2021.5,3069.5C2022.88,3069.5 2024,3070.62 2024,3072C2024,3073.38 2022.88,3074.5 2021.5,3074.5C2020.12,3074.5 2019,3073.38 2019,3072C2019,3070.62 2020.12,3069.5 2021.5,3069.5ZM2028.3,3069.5C2029.68,3069.5 2030.8,3070.62 2030.8,3072C2030.8,3073.38 2029.68,3074.5 2028.3,3074.5C2026.92,3074.5 2025.8,3073.38 2025.8,3072C2025.8,3070.62 2026.92,3069.5 2028.3,3069.5ZM2035.1,3069.5C2036.48,3069.5 2037.6,3070.62 2037.6,3072C2037.6,3073.38 2036.48,3074.5 2035.1,3074.5C2033.72,3074.5 2032.6,3073.38 2032.6,3072C2032.6,3070.62 2033.72,3069.5 2035.1,3069.5Z"/>
            </g>
        </g>
    </g>
</svg>
