<?xml version="1.0" encoding="UTF-8" standalone="no"?>
<!DOCTYPE svg PUBLIC "-//W3C//DTD SVG 1.1//EN" "http://www.w3.org/Graphics/SVG/1.1/DTD/svg11.dtd">
<svg width="100%" height="100%" viewBox="0 0 128 64" version="1.1" xmlns="http://www.w3.org/2000/svg" xmlns:xlink="http://www.w3.org/1999/xlink" xml:space="preserve" xmlns:serif="http://www.serif.com/" style="fill-rule:evenodd;clip-rule:evenodd;stroke-linejoin:round;stroke-miterlimit:2;">
    <g transform="matrix(1,0,0,1,-2000,-3040)">
        <g id="macx-tool-menu" transform="matrix(1,0,0,0.5,152,1520)">
            <rect x="1848" y="3040" width="128" height="128" style="fill:none;"/>
            <g transform="matrix(1.62079,0,0,3.24035,-1408.79,-6845.89)">
                <path d="M2070,3073.59L2076.88,3067.03C2077.48,3066.46 2078.45,3066.46 2079.05,3067.03L2080.5,3068.41C2081.1,3068.99 2081.1,3069.91 2080.5,3070.48L2071.09,3079.45C2070.79,3079.73 2070.39,3079.88 2070,3079.88C2069.61,3079.88 2069.21,3079.73 2068.91,3079.45L2059.5,3070.48C2058.9,3069.91 2058.9,3068.99 2059.5,3068.41L2060.95,3067.03C2061.55,3066.46 2062.52,3066.46 2063.12,3067.03L2070,3073.59Z"/>
            </g>
            <g transform="matrix(0.942308,0,0,1.88462,-33.8942,-2688.08)">
                <path d="M2038.5,3050C2052.85,3050 2064.5,3061.65 2064.5,3076C2064.5,3090.35 2052.85,3102 2038.5,3102C2024.15,3102 2012.5,3090.35 2012.5,3076C2012.5,3061.65 2024.15,3050 2038.5,3050ZM2038.5,3053.76C2050.78,3053.76 2060.74,3063.72 2060.74,3076C2060.74,3088.28 2050.78,3098.24 2038.5,3098.24C2026.22,3098.24 2016.26,3088.28 2016.26,3076C2016.26,3063.72 2026.22,3053.76 2038.5,3053.76Z"/>
                <path d="M2038.5,3048.23C2023.17,3048.23 2010.73,3060.67 2010.73,3076C2010.73,3091.33 2023.17,3103.77 2038.5,3103.77C2053.83,3103.77 2066.27,3091.33 2066.27,3076C2066.27,3060.67 2053.83,3048.23 2038.5,3048.23ZM2038.5,3050C2052.85,3050 2064.5,3061.65 2064.5,3076C2064.5,3090.35 2052.85,3102 2038.5,3102C2024.15,3102 2012.5,3090.35 2012.5,3076C2012.5,3061.65 2024.15,3050 2038.5,3050ZM2038.5,3053.76C2050.78,3053.76 2060.74,3063.72 2060.74,3076C2060.74,3088.28 2050.78,3098.24 2038.5,3098.24C2026.22,3098.24 2016.26,3088.28 2016.26,3076C2016.26,3063.72 2026.22,3053.76 2038.5,3053.76ZM2038.5,3055.52C2049.8,3055.52 2058.98,3064.7 2058.98,3076C2058.98,3087.3 2049.8,3096.48 2038.5,3096.48C2027.2,3096.48 2018.02,3087.3 2018.02,3076C2018.02,3064.7 2027.2,3055.52 2038.5,3055.52Z"/>
            </g>
            <g transform="matrix(1.4,0,0,2.8,-954.6,-5492.6)">
                <circle cx="2021.5" cy="3072" r="2.5"/>
                <path d="M2021.5,3068.55C2019.6,3068.55 2018.05,3070.1 2018.05,3072C2018.05,3073.91 2019.6,3075.45 2021.5,3075.45C2023.4,3075.45 2024.95,3073.91 2024.95,3072C2024.95,3070.1 2023.4,3068.55 2021.5,3068.55ZM2021.5,3069.5C2022.88,3069.5 2024,3070.62 2024,3072C2024,3073.38 2022.88,3074.5 2021.5,3074.5C2020.12,3074.5 2019,3073.38 2019,3072C2019,3070.62 2020.12,3069.5 2021.5,3069.5Z"/>
            </g>
            <g transform="matrix(1.4,0,0,2.8,-952.62,-5492.6)">
                <circle cx="2028.3" cy="3072" r="2.5"/>
                <path d="M2028.3,3068.55C2026.39,3068.55 2024.85,3070.1 2024.85,3072C2024.85,3073.91 2026.39,3075.45 2028.3,3075.45C2030.21,3075.45 2031.75,3073.91 2031.75,3072C2031.75,3070.1 2030.21,3068.55 2028.3,3068.55ZM2028.3,3069.5C2029.68,3069.5 2030.8,3070.62 2030.8,3072C2030.8,3073.38 2029.68,3074.5 2028.3,3074.5C2026.92,3074.5 2025.8,3073.38 2025.8,3072C2025.8,3070.62 2026.92,3069.5 2028.3,3069.5Z"/>
            </g>
            <g transform="matrix(1.4,0,0,2.8,-950.64,-5492.6)">
                <circle cx="2035.1" cy="3072" r="2.5"/>
                <path d="M2035.1,3068.55C2033.19,3068.55 2031.65,3070.1 2031.65,3072C2031.65,3073.91 2033.19,3075.45 2035.1,3075.45C2037.01,3075.45 2038.55,3073.91 2038.55,3072C2038.55,3070.1 2037.01,3068.55 2035.1,3068.55ZM2035.1,3069.5C2036.48,3069.5 2037.6,3070.62 2037.6,3072C2037.6,3073.38 2036.48,3074.5 2035.1,3074.5C2033.72,3074.5 2032.6,3073.38 2032.6,3072C2032.6,3070.62 2033.72,3069.5 2035.1,3069.5Z"/>
            </g>
        </g>
    </g>
</svg>
