<?xml version="1.0" encoding="UTF-8" standalone="no"?>
<!DOCTYPE svg PUBLIC "-//W3C//DTD SVG 1.1//EN" "http://www.w3.org/Graphics/SVG/1.1/DTD/svg11.dtd">
<svg width="100%" height="100%" viewBox="0 0 100 60" version="1.1" xmlns="http://www.w3.org/2000/svg" xmlns:xlink="http://www.w3.org/1999/xlink" xml:space="preserve" xmlns:serif="http://www.serif.com/" style="fill-rule:evenodd;clip-rule:evenodd;stroke-linejoin:round;stroke-miterlimit:2;">
    <g transform="matrix(1,0,0,1,-3064,-3040)">
        <g id="picon" transform="matrix(0.78125,0,0,0.46875,670.25,1615)">
            <rect x="3064" y="3040" width="128" height="128" style="fill:none;"/>
            <clipPath id="_clip1">
                <rect x="3064" y="3040" width="128" height="128"/>
            </clipPath>
            <g clip-path="url(#_clip1)">
                <g transform="matrix(1.28,0,0,2.13333,-857.92,-3445.33)">
                    <path d="M3164,3040L3064,3040L3064,3100L3164,3100L3164,3040ZM3162,3042L3162,3098C3162,3098 3066,3098 3066,3098C3066,3098 3066,3042 3066,3042L3162,3042Z" style="fill:rgb(128,128,128);fill-opacity:0.2;"/>
                </g>
                <g transform="matrix(1.28,0,0,2.13333,-857.92,-3445.33)">
                    <path d="M3114.1,3069.71L3099.66,3060.93L3099.25,3061.62L3113.32,3070.17L3099.25,3078.38C3099.25,3078.38 3099.66,3079.07 3099.66,3079.07L3114.1,3070.64L3114.1,3070.65L3114.1,3070.64L3128.34,3079.07L3128.75,3078.38L3114.87,3070.17C3114.87,3070.17 3128.76,3061.61 3128.76,3061.61L3128.34,3060.93L3114.1,3069.71Z" style="fill:rgb(128,128,128);fill-opacity:0.25;"/>
                </g>
                <g transform="matrix(1.28,0,0,2.13333,-857.92,-3445.33)">
                    <path d="M3129.35,3079.53L3129.35,3060.47L3098.66,3060.47L3098.66,3079.53L3129.35,3079.53ZM3128.55,3061.27L3099.45,3061.27L3099.45,3078.73L3128.55,3078.73L3128.55,3061.27Z" style="fill:rgb(154,154,154);fill-opacity:0.33;"/>
                </g>
            </g>
        </g>
    </g>
</svg>
