<?xml version="1.0" encoding="UTF-8" standalone="no"?>
<!DOCTYPE svg PUBLIC "-//W3C//DTD SVG 1.1//EN" "http://www.w3.org/Graphics/SVG/1.1/DTD/svg11.dtd">
<svg width="100%" height="100%" viewBox="0 0 128 128" version="1.1" xmlns="http://www.w3.org/2000/svg" xmlns:xlink="http://www.w3.org/1999/xlink" xml:space="preserve" xmlns:serif="http://www.serif.com/" style="fill-rule:evenodd;clip-rule:evenodd;stroke-linejoin:round;stroke-miterlimit:2;">
    <g transform="matrix(1,0,0,1,-3064,-3040)">
        <rect id="round-info" x="3064" y="3040" width="128" height="128" style="fill:none;"/>
        <g id="round-info1" serif:id="round-info">
            <g transform="matrix(1,0,0,1,-1.7053e-13,2280)">
                <g transform="matrix(1.01667,0,0,1.01667,2879.97,-164.171)">
                    <path d="M244.388,912.001C266.062,912.207 287.013,924.95 297.097,944.05C305.738,960.419 306.202,980.893 298.237,997.674C287.011,1021.32 259.354,1036.05 232.648,1030.93C208.161,1026.23 187.84,1004.76 184.531,980.012C182.001,961.081 189.125,941.126 203.136,928.082C214.019,917.951 228.718,912.143 243.612,912.001C243.871,912 244.129,912 244.388,912.001ZM243.668,920.854C219.011,921.092 195.93,940.785 193.151,966.444C190.45,991.377 208.503,1017.12 234.002,1022.17C254.861,1026.31 277.748,1015.9 288.373,997.44C296.343,983.592 297.269,965.885 290.758,951.248C282.827,933.422 264.033,921.044 244.332,920.854C244.111,920.853 243.889,920.853 243.668,920.854Z" style="fill-rule:nonzero;"/>
                </g>
                <g transform="matrix(0.828847,0,0,0.828847,535.422,136.978)">
                    <g transform="matrix(0.836518,0,0,0.836518,505.935,127.44)">
                        <circle cx="3132" cy="804" r="12"/>
                    </g>
                    <g transform="matrix(1.00382,0,0,1.00382,-11.9984,0.515128)">
                        <path d="M3120.08,818.272L3116.09,816.002L3131.85,815.509L3131.85,860.198L3140,864L3116.09,864L3120.08,860.198L3120.08,818.272Z"/>
                    </g>
                </g>
            </g>
        </g>
    </g>
</svg>
