<?xml version="1.0" encoding="UTF-8" standalone="no"?>
<!DOCTYPE svg PUBLIC "-//W3C//DTD SVG 1.1//EN" "http://www.w3.org/Graphics/SVG/1.1/DTD/svg11.dtd">
<svg width="100%" height="100%" viewBox="0 0 128 128" version="1.1" xmlns="http://www.w3.org/2000/svg" xmlns:xlink="http://www.w3.org/1999/xlink" xml:space="preserve" xmlns:serif="http://www.serif.com/" style="fill-rule:evenodd;clip-rule:evenodd;stroke-linejoin:round;stroke-miterlimit:2;">
    <g transform="matrix(1,0,0,1,-1392,-3040)">
        <rect id="round-checkmark" x="1392" y="3040" width="128" height="128" style="fill:none;"/>
        <g id="round-checkmark1" serif:id="round-checkmark">
            <g transform="matrix(1,0,2.46519e-32,1,-1.13687e-13,2280)">
                <g transform="matrix(1.01667,0,-2.50628e-32,1.01667,1207.97,-164.171)">
                    <path d="M244.388,912.001C266.062,912.207 287.013,924.95 297.097,944.05C305.738,960.419 306.202,980.893 298.237,997.674C287.011,1021.32 259.354,1036.05 232.648,1030.93C208.161,1026.23 187.84,1004.76 184.531,980.012C182.001,961.081 189.125,941.126 203.136,928.082C214.019,917.951 228.718,912.143 243.612,912.001C243.871,912 244.129,912 244.388,912.001ZM243.668,920.854C219.011,921.092 195.93,940.785 193.151,966.444C190.45,991.377 208.503,1017.12 234.002,1022.17C254.861,1026.31 277.748,1015.9 288.373,997.44C296.343,983.592 297.269,965.885 290.758,951.248C282.827,933.422 264.033,921.044 244.332,920.854C244.111,920.853 243.889,920.853 243.668,920.854Z" style="fill-rule:nonzero;"/>
                </g>
                <g transform="matrix(0.53033,0.53033,-0.396075,0.396075,1328.35,43.7249)">
                    <path d="M873.333,757.809C873.333,794.705 873.334,831.601 873.333,868.497L822.667,868.497L822.667,843.503L854.667,843.503L854.667,836.34L854.666,757.809C860.889,757.809 867.111,757.809 873.333,757.809Z" style="fill-rule:nonzero;"/>
                </g>
            </g>
        </g>
    </g>
</svg>
