<?xml version="1.0" encoding="UTF-8" standalone="no"?>
<!DOCTYPE svg PUBLIC "-//W3C//DTD SVG 1.1//EN" "http://www.w3.org/Graphics/SVG/1.1/DTD/svg11.dtd">
<svg width="100%" height="100%" viewBox="0 0 128 128" version="1.1" xmlns="http://www.w3.org/2000/svg" xmlns:xlink="http://www.w3.org/1999/xlink" xml:space="preserve" xmlns:serif="http://www.serif.com/" style="fill-rule:evenodd;clip-rule:evenodd;stroke-linejoin:round;stroke-miterlimit:2;">
    <g transform="matrix(1,0,0,1,-1544,-3040)">
        <rect id="round-delete" x="1544" y="3040" width="128" height="128" style="fill:none;"/>
        <g id="round-delete1" serif:id="round-delete">
            <g transform="matrix(1,0,2.46519e-32,1,-1.13687e-13,2280)">
                <g transform="matrix(1.01667,0,-2.50628e-32,1.01667,1359.97,-164.171)">
                    <path d="M244.388,912.001C266.062,912.207 287.013,924.95 297.097,944.05C305.738,960.419 306.202,980.893 298.237,997.674C287.011,1021.32 259.354,1036.05 232.648,1030.93C208.161,1026.23 187.84,1004.76 184.531,980.012C182.001,961.081 189.125,941.126 203.136,928.082C214.019,917.951 228.718,912.143 243.612,912.001C243.871,912 244.129,912 244.388,912.001ZM243.668,920.854C219.011,921.092 195.93,940.785 193.151,966.444C190.45,991.377 208.503,1017.12 234.002,1022.17C254.861,1026.31 277.748,1015.9 288.373,997.44C296.343,983.592 297.269,965.885 290.758,951.248C282.827,933.422 264.033,921.044 244.332,920.854C244.111,920.853 243.889,920.853 243.668,920.854Z" style="fill-rule:nonzero;"/>
                </g>
                <g transform="matrix(1,0,0,1,6.25278e-13,-2432)">
                    <path d="M1636.95,3236.95L1617.9,3256L1636.95,3275.05L1627.05,3284.95L1608,3265.9L1588.95,3284.95L1579.05,3275.05L1598.1,3256L1579.05,3236.95L1588.95,3227.05L1608,3246.1L1627.05,3227.05C1630.35,3230.35 1633.65,3233.65 1636.95,3236.95Z"/>
                </g>
            </g>
        </g>
    </g>
</svg>
