<?xml version="1.0" encoding="UTF-8" standalone="no"?>
<!DOCTYPE svg PUBLIC "-//W3C//DTD SVG 1.1//EN" "http://www.w3.org/Graphics/SVG/1.1/DTD/svg11.dtd">
<svg width="100%" height="100%" viewBox="0 0 128 128" version="1.1" xmlns="http://www.w3.org/2000/svg" xmlns:xlink="http://www.w3.org/1999/xlink" xml:space="preserve" xmlns:serif="http://www.serif.com/" style="fill-rule:evenodd;clip-rule:evenodd;stroke-linejoin:round;stroke-miterlimit:2;">
    <g transform="matrix(1,0,0,1,-3368,-3040)">
        <rect id="round-question" x="3368" y="3040" width="128" height="128" style="fill:none;"/>
        <g id="round-question1" serif:id="round-question">
            <g transform="matrix(1,0,0,1,-1.7053e-13,2280)">
                <g transform="matrix(1.01667,0,0,1.01667,3183.97,-164.171)">
                    <path d="M244.388,912.001C266.062,912.207 287.013,924.95 297.097,944.05C305.738,960.419 306.202,980.893 298.237,997.674C287.011,1021.32 259.354,1036.05 232.648,1030.93C208.161,1026.23 187.84,1004.76 184.531,980.012C182.001,961.081 189.125,941.126 203.136,928.082C214.019,917.951 228.718,912.143 243.612,912.001C243.871,912 244.129,912 244.388,912.001ZM243.668,920.854C219.011,921.092 195.93,940.785 193.151,966.444C190.45,991.377 208.503,1017.12 234.002,1022.17C254.861,1026.31 277.748,1015.9 288.373,997.44C296.343,983.592 297.269,965.885 290.758,951.248C282.827,933.422 264.033,921.044 244.332,920.854C244.111,920.853 243.889,920.853 243.668,920.854Z" style="fill-rule:nonzero;"/>
                </g>
                <g>
                    <g transform="matrix(-0.484141,-6.45006e-17,5.37505e-17,-0.484141,4947.57,1241.09)">
                        <circle cx="3132" cy="804" r="12"/>
                    </g>
                    <g transform="matrix(0.849642,0,0,0.849642,517.091,-131.848)">
                        <path d="M3423.52,1137.06L3422.04,1127.06C3427.32,1126.27 3432.72,1125.6 3437.27,1122.66C3443.19,1118.84 3447.62,1111.28 3443.64,1104.54C3439.6,1097.71 3429.32,1095.67 3421.84,1098.93C3420.2,1099.65 3418.79,1101.01 3417.49,1102.39C3417.49,1102.39 3413.29,1107.05 3413.29,1107.05L3404.38,1099.02L3408.54,1094.4C3409.3,1093.57 3409.41,1093.49 3409.82,1093.09C3411.74,1091.25 3413.87,1089.54 3416.18,1088.33C3416.95,1087.93 3417.07,1087.92 3417.42,1087.77C3421.22,1086.18 3425.39,1085.38 3429.51,1085.39C3440.99,1085.5 3452.96,1092.16 3456.22,1103.66C3457.96,1109.81 3457.16,1116.58 3453.9,1122.29C3450.14,1128.9 3443.77,1133.69 3436.73,1136.26L3434.08,1144.26L3424.25,1144.27L3423.52,1137.06Z"/>
                    </g>
                </g>
            </g>
        </g>
    </g>
</svg>
