<?xml version="1.0" encoding="UTF-8" standalone="no"?>
<!DOCTYPE svg PUBLIC "-//W3C//DTD SVG 1.1//EN" "http://www.w3.org/Graphics/SVG/1.1/DTD/svg11.dtd">
<svg width="100%" height="100%" viewBox="0 0 64 64" version="1.1" xmlns="http://www.w3.org/2000/svg" xmlns:xlink="http://www.w3.org/1999/xlink" xml:space="preserve" xmlns:serif="http://www.serif.com/" style="fill-rule:evenodd;clip-rule:evenodd;stroke-linejoin:round;stroke-miterlimit:2;">
    <g transform="matrix(1,0,0,1,-664,-2464)">
        <g id="search" transform="matrix(0.5,0,0,0.5,348,1248)">
            <rect x="632" y="2432" width="128" height="128" style="fill:none;"/>
            <g transform="matrix(1.20859,0,0,1.20859,-145.285,-704.45)">
                <path d="M709.364,2669.85C703.611,2674.14 696.574,2676.78 688.833,2676.83C671.613,2676.94 655.28,2663.16 652.748,2645.89C649.883,2626.34 665.291,2605.9 686.043,2604.45C686.972,2604.39 687.902,2604.36 688.833,2604.37C705.381,2604.52 720.903,2617.19 724.142,2633.52C726.055,2643.17 723.418,2653.25 717.738,2661.25L740.607,2684.12L732.121,2692.61L709.364,2669.85ZM688.466,2619.36C678.147,2619.46 668.609,2627.92 667.488,2638.28C666.516,2647.28 671.941,2656.61 680.351,2660.17C691.307,2664.82 705.746,2658.24 709.065,2646.29C712.467,2634.03 702.845,2619.76 689.155,2619.37C688.925,2619.37 688.696,2619.36 688.466,2619.36Z"/>
            </g>
        </g>
    </g>
</svg>
