<?xml version="1.0" encoding="UTF-8" standalone="no"?>
<!DOCTYPE svg PUBLIC "-//W3C//DTD SVG 1.1//EN" "http://www.w3.org/Graphics/SVG/1.1/DTD/svg11.dtd">
<svg width="100%" height="100%" viewBox="0 0 64 64" version="1.1" xmlns="http://www.w3.org/2000/svg" xmlns:xlink="http://www.w3.org/1999/xlink" xml:space="preserve" xmlns:serif="http://www.serif.com/" style="fill-rule:evenodd;clip-rule:evenodd;stroke-linejoin:round;stroke-miterlimit:2;">
    <g transform="matrix(1,0,0,1,-1544,-3232)">
        <g id="service-whitelist" transform="matrix(1,0,0,1,0,11)">
            <rect x="1544" y="3221" width="64" height="64" style="fill:none;"/>
            <g transform="matrix(1,0,0,1,0,-11)">
                <path d="M1558.36,3254.91C1556.34,3256.26 1555,3258.56 1555,3261.17L1555,3283.5C1555,3287.64 1558.36,3291 1562.5,3291L1589.5,3291C1593.64,3291 1597,3287.64 1597,3283.5L1597,3261.17C1597,3257.03 1593.64,3253.67 1589.5,3253.67L1565.42,3253.67L1564.98,3252.62C1563.61,3249.39 1565.12,3245.66 1568.35,3244.29L1575.99,3241.05C1578.95,3239.79 1582.34,3240.96 1583.93,3243.66L1590.4,3240.91C1587.27,3234.66 1579.77,3231.84 1573.25,3234.61C1573.25,3234.61 1565.61,3237.85 1565.61,3237.85C1558.98,3240.67 1555.8,3248.24 1558.36,3254.91ZM1587.31,3269.31L1564.69,3269.31L1564.69,3276.51L1587.31,3276.51L1587.31,3269.31Z"/>
            </g>
        </g>
    </g>
</svg>
