<?xml version="1.0" encoding="UTF-8" standalone="no"?>
<!DOCTYPE svg PUBLIC "-//W3C//DTD SVG 1.1//EN" "http://www.w3.org/Graphics/SVG/1.1/DTD/svg11.dtd">
<svg width="100%" height="100%" viewBox="0 0 64 64" version="1.1" xmlns="http://www.w3.org/2000/svg" xmlns:xlink="http://www.w3.org/1999/xlink" xml:space="preserve" xmlns:serif="http://www.serif.com/" style="fill-rule:evenodd;clip-rule:evenodd;stroke-linejoin:round;stroke-miterlimit:2;">
    <g id="service-blacklist" transform="matrix(1,0,0,1,-1392,-3221)">
        <rect x="1392" y="3221" width="64" height="64" style="fill:none;"/>
        <g transform="matrix(1,0,0,1,0,-11)">
            <path d="M1406.5,3254.82C1404.4,3256.15 1403,3258.5 1403,3261.17L1403,3283.5C1403,3287.64 1406.36,3291 1410.5,3291L1437.5,3291C1441.64,3291 1445,3287.64 1445,3283.5L1445,3261.17C1445,3258.5 1443.6,3256.15 1441.5,3254.82L1441.5,3247.77C1441.5,3240.4 1435.52,3234.42 1428.15,3234.42L1419.85,3234.42C1412.48,3234.42 1406.5,3240.4 1406.5,3247.77L1406.5,3254.82ZM1436.73,3276.11L1436.73,3269.71L1427.2,3269.71L1427.2,3260.18L1420.8,3260.18L1420.8,3269.71L1411.27,3269.71L1411.27,3276.11L1420.8,3276.11L1420.8,3285.64L1427.2,3285.64L1427.2,3276.11L1436.73,3276.11ZM1434.5,3253.67L1434.5,3247.77C1434.5,3244.27 1431.65,3241.42 1428.15,3241.42L1419.85,3241.42C1416.35,3241.42 1413.5,3244.27 1413.5,3247.77L1413.5,3253.67L1434.5,3253.67Z"/>
        </g>
    </g>
</svg>
