<?xml version="1.0" encoding="UTF-8" standalone="no"?>
<!DOCTYPE svg PUBLIC "-//W3C//DTD SVG 1.1//EN" "http://www.w3.org/Graphics/SVG/1.1/DTD/svg11.dtd">
<svg width="100%" height="100%" viewBox="0 0 64 64" version="1.1" xmlns="http://www.w3.org/2000/svg" xmlns:xlink="http://www.w3.org/1999/xlink" xml:space="preserve" xmlns:serif="http://www.serif.com/" style="fill-rule:evenodd;clip-rule:evenodd;stroke-linejoin:round;stroke-miterlimit:2;">
    <g transform="matrix(1,0,0,1,-2668,-3072)">
        <g id="services-sets-menu" transform="matrix(0.5,0,0,0.5,1744,1552)">
            <rect x="1848" y="3040" width="128" height="128" style="fill:none;"/>
            <g transform="matrix(2,0,0,2,-3488,-3104)">
                <path d="M2687.14,3093.69C2687.14,3091.39 2685.28,3089.52 2682.97,3089.52C2682.97,3089.52 2675.42,3089.52 2675.42,3089.52C2673.12,3089.52 2671.25,3091.39 2671.25,3093.69C2671.25,3095.99 2673.12,3097.86 2675.42,3097.86C2675.42,3097.86 2682.97,3097.86 2682.97,3097.86C2685.28,3097.86 2687.14,3095.99 2687.14,3093.69Z"/>
            </g>
            <g transform="matrix(2,0,0,2,-3488,-3104)">
                <path d="M2687.14,3105.65C2687.14,3103.35 2685.28,3101.48 2682.97,3101.48C2682.97,3101.48 2675.42,3101.48 2675.42,3101.48C2673.12,3101.48 2671.25,3103.35 2671.25,3105.65C2671.25,3107.95 2673.12,3109.82 2675.42,3109.82C2675.42,3109.82 2682.97,3109.82 2682.97,3109.82C2685.28,3109.82 2687.14,3107.95 2687.14,3105.65Z"/>
            </g>
            <g transform="matrix(2,0,0,2,-3488,-3104)">
                <path d="M2687.14,3117.62C2687.14,3115.32 2685.28,3113.45 2682.97,3113.45L2675.42,3113.45C2673.12,3113.45 2671.25,3115.32 2671.25,3117.62C2671.25,3119.92 2673.12,3121.78 2675.42,3121.78L2682.97,3121.78C2685.28,3121.78 2687.14,3119.92 2687.14,3117.62Z"/>
            </g>
            <g transform="matrix(2,0,0,2,-3488,-3104)">
                <path d="M2687.14,3129.58C2687.14,3127.28 2685.28,3125.41 2682.97,3125.41C2682.97,3125.41 2675.42,3125.41 2675.42,3125.41C2673.12,3125.41 2671.25,3127.28 2671.25,3129.58C2671.25,3131.88 2673.12,3133.75 2675.42,3133.75C2675.42,3133.75 2682.97,3133.75 2682.97,3133.75C2685.28,3133.75 2687.14,3131.88 2687.14,3129.58Z"/>
            </g>
            <g transform="matrix(2,0,0,2,-3488,-3104)">
                <path d="M2728.75,3105.65C2728.75,3103.35 2726.88,3101.48 2724.58,3101.48C2724.58,3101.48 2695.43,3101.48 2695.43,3101.48C2693.13,3101.48 2691.27,3103.35 2691.27,3105.65C2691.27,3107.95 2693.13,3109.82 2695.43,3109.82C2695.43,3109.82 2724.58,3109.82 2724.58,3109.82C2726.88,3109.82 2728.75,3107.95 2728.75,3105.65Z"/>
            </g>
            <g transform="matrix(2,0,0,2,-3488,-3104)">
                <path d="M2728.75,3117.62C2728.75,3115.32 2726.88,3113.45 2724.58,3113.45L2695.43,3113.45C2693.13,3113.45 2691.27,3115.32 2691.27,3117.62C2691.27,3119.92 2693.13,3121.78 2695.43,3121.78L2724.58,3121.78C2726.88,3121.78 2728.75,3119.92 2728.75,3117.62Z"/>
            </g>
            <g transform="matrix(2,0,0,2,-3488,-3104)">
                <path d="M2728.75,3129.58C2728.75,3127.28 2726.88,3125.41 2724.58,3125.41C2724.58,3125.41 2695.43,3125.41 2695.43,3125.41C2693.13,3125.41 2691.27,3127.28 2691.27,3129.58C2691.27,3131.88 2693.13,3133.75 2695.43,3133.75C2695.43,3133.75 2724.58,3133.75 2724.58,3133.75C2726.88,3133.75 2728.75,3131.88 2728.75,3129.58Z"/>
            </g>
            <g transform="matrix(2,0,0,2,-3488,-3104)">
                <path d="M2716.09,3087.69L2720.95,3092.55C2722.56,3094.16 2725.18,3094.16 2726.8,3092.55C2728.41,3090.94 2728.41,3088.32 2726.8,3086.7C2726.8,3086.7 2719.08,3078.99 2719.08,3078.99C2718.26,3078.17 2717.17,3077.76 2716.09,3077.78C2715.01,3077.76 2713.92,3078.17 2713.09,3078.99C2713.09,3078.99 2705.38,3086.7 2705.38,3086.7C2703.77,3088.32 2703.77,3090.94 2705.38,3092.55C2707,3094.16 2709.62,3094.16 2711.23,3092.55L2716.09,3087.69Z"/>
            </g>
        </g>
    </g>
</svg>
