<?xml version="1.0" encoding="UTF-8" standalone="no"?>
<!DOCTYPE svg PUBLIC "-//W3C//DTD SVG 1.1//EN" "http://www.w3.org/Graphics/SVG/1.1/DTD/svg11.dtd">
<svg width="100%" height="100%" viewBox="0 0 128 128" version="1.1" xmlns="http://www.w3.org/2000/svg" xmlns:xlink="http://www.w3.org/1999/xlink" xml:space="preserve" xmlns:serif="http://www.serif.com/" style="fill-rule:evenodd;clip-rule:evenodd;stroke-linejoin:round;stroke-miterlimit:2;">
    <g transform="matrix(1,0,0,1,-3064,-2432)">
        <rect id="settings" x="3064" y="2432" width="128" height="128" style="fill:none;"/>
        <g id="settings1" serif:id="settings">
            <g transform="matrix(1,2.77556e-17,2.77556e-17,0.961538,2430.1,2138.69)">
                <path d="M707.834,321.016C701.343,319.661 694.657,319.661 688.166,321.016C688.994,325.309 689.618,329.634 690.037,333.992C685.685,334.978 681.537,336.765 677.788,339.268C675.122,335.879 672.623,332.362 670.289,328.717C664.778,332.533 660.051,337.449 656.381,343.181C659.886,345.608 663.268,348.207 666.527,350.98C664.12,354.878 662.402,359.192 661.454,363.719C657.264,363.282 653.105,362.634 648.977,361.772C647.674,368.524 647.674,375.476 648.977,382.228C653.105,381.366 657.264,380.718 661.454,380.281C662.402,384.808 664.12,389.122 666.527,393.02C663.268,395.793 659.886,398.392 656.381,400.819C660.051,406.551 664.778,411.467 670.289,415.283C672.623,411.638 675.122,408.121 677.788,404.732C681.537,407.235 685.685,409.022 690.037,410.008C689.618,414.366 688.994,418.691 688.166,422.984C694.657,424.339 701.343,424.339 707.834,422.984C707.006,418.691 706.382,414.366 705.963,410.008C710.315,409.022 714.463,407.235 718.212,404.732C720.878,408.121 723.377,411.638 725.711,415.283C731.222,411.467 735.949,406.551 739.619,400.819C736.114,398.392 732.732,395.793 729.473,393.02C731.88,389.122 733.598,384.808 734.546,380.281C738.736,380.718 742.895,381.366 747.023,382.228C748.326,375.476 748.326,368.524 747.023,361.772C742.895,362.634 738.736,363.282 734.546,363.719C733.598,359.192 731.88,354.878 729.473,350.98C732.732,348.207 736.114,345.608 739.619,343.181C735.949,337.449 731.222,332.533 725.711,328.717C723.377,332.362 720.878,335.879 718.212,339.268C714.463,336.765 710.315,334.978 705.963,333.992C706.382,329.634 707.006,325.309 707.834,321.016ZM698,357.96C705.451,357.96 711.5,364.251 711.5,372C711.5,379.749 705.451,386.04 698,386.04C690.549,386.04 684.5,379.749 684.5,372C684.5,364.251 690.549,357.96 698,357.96Z"/>
            </g>
        </g>
    </g>
</svg>
