<?xml version="1.0" encoding="UTF-8" standalone="no"?>
<!DOCTYPE svg PUBLIC "-//W3C//DTD SVG 1.1//EN" "http://www.w3.org/Graphics/SVG/1.1/DTD/svg11.dtd">
<svg width="100%" height="100%" viewBox="0 0 64 64" version="1.1" xmlns="http://www.w3.org/2000/svg" xmlns:xlink="http://www.w3.org/1999/xlink" xml:space="preserve" xmlns:serif="http://www.serif.com/" style="fill-rule:evenodd;clip-rule:evenodd;stroke-linejoin:round;stroke-miterlimit:2;">
    <g transform="matrix(1,0,0,1,-2640,-2592)">
        <g id="show" transform="matrix(0.5,0,0,0.5,1336,1376)">
            <rect x="2608" y="2432" width="128" height="128" style="fill:none;"/>
            <g transform="matrix(2.25,0,0,2.23529,-3340,-3370.66)">
                <path d="M2655.47,2614.99L2655.49,2614.96C2659.08,2610.51 2665.13,2607.56 2672,2607.56C2678.88,2607.56 2684.95,2610.52 2688.53,2614.99L2688.56,2615.02L2688.56,2615.02C2690.74,2617.74 2692,2621.03 2692,2624.56C2692,2627.37 2691.2,2630.03 2689.75,2632.36L2689.75,2632.37C2689.58,2632.65 2689.56,2632.68 2689.74,2632.38C2686.44,2637.81 2679.74,2641.56 2672,2641.56C2664.26,2641.56 2657.56,2637.81 2654.26,2632.38L2654.25,2632.36C2652.8,2630.03 2652,2627.37 2652,2624.56C2652,2621.01 2653.27,2617.72 2655.47,2614.99C2655.22,2615.29 2655.47,2614.99 2655.47,2614.99ZM2688.19,2624.46L2688.19,2627.54C2684.32,2630.75 2678.4,2633.3 2672,2633.3C2665.6,2633.3 2659.68,2630.74 2655.81,2627.54L2655.81,2624.46C2659.68,2621.26 2665.6,2618.7 2672,2618.7C2678.4,2618.7 2684.32,2621.26 2688.19,2624.46Z"/>
            </g>
            <g transform="matrix(2.65078,0,0,3.05191,-4418.24,-5520.28)">
                <ellipse cx="2674.78" cy="2627.63" rx="8.111" ry="7.209"/>
            </g>
        </g>
    </g>
</svg>
