<?xml version="1.0" encoding="UTF-8" standalone="no"?>
<!DOCTYPE svg PUBLIC "-//W3C//DTD SVG 1.1//EN" "http://www.w3.org/Graphics/SVG/1.1/DTD/svg11.dtd">
<svg width="100%" height="100%" viewBox="0 0 64 64" version="1.1" xmlns="http://www.w3.org/2000/svg" xmlns:xlink="http://www.w3.org/1999/xlink" xml:space="preserve" xmlns:serif="http://www.serif.com/" style="fill-rule:evenodd;clip-rule:evenodd;stroke-linejoin:round;stroke-miterlimit:2;">
    <g transform="matrix(1,0,0,1,-1392,-3424)">
        <g id="sync-error" transform="matrix(0.5,0,0,0.5,696,1904)">
            <rect x="1392" y="3040" width="128" height="128" style="fill:none;"/>
            <g transform="matrix(2,0,0,2,-1392,-3808)">
                <path d="M1405.13,3464.49L1411,3458.62L1395,3458.62L1395,3474.62L1400.48,3469.14C1404.52,3476.99 1413.14,3482.44 1423.05,3482.96C1437.52,3483.72 1449.82,3473.82 1450.5,3460.87C1450.52,3460.46 1450.53,3460.05 1450.53,3459.64L1444.29,3459.6C1444.3,3459.91 1444.29,3460.23 1444.27,3460.54C1443.75,3470.41 1434.38,3477.96 1423.35,3477.39C1414.83,3476.94 1407.57,3471.72 1405.13,3464.49ZM1442.68,3446.7C1439.87,3439.11 1431.73,3434.17 1422.77,3434.64C1412.15,3435.19 1403.78,3443.1 1403.72,3452.62L1397.46,3452.65C1397.54,3440.15 1408.53,3429.77 1422.47,3429.04C1433.09,3428.48 1442.82,3433.7 1447.34,3442.04L1453,3436.38L1453,3452.38L1437,3452.38L1442.68,3446.7Z"/>
            </g>
            <g transform="matrix(2,0,0,2,-1392,-3808)">
                <path d="M1424,3472.68C1422.4,3472.68 1421.11,3471.38 1421.11,3469.79C1421.11,3468.19 1422.4,3466.89 1424,3466.89C1425.59,3466.89 1426.89,3468.19 1426.89,3469.79C1426.89,3471.38 1425.59,3472.68 1424,3472.68ZM1420.53,3439.35L1427.47,3439.33L1426.09,3463.99L1421.93,3464.01L1421.93,3463.97L1421.91,3463.97L1420.53,3439.35Z"/>
            </g>
        </g>
    </g>
</svg>
