<?xml version="1.0" encoding="UTF-8" standalone="no"?>
<!DOCTYPE svg PUBLIC "-//W3C//DTD SVG 1.1//EN" "http://www.w3.org/Graphics/SVG/1.1/DTD/svg11.dtd">
<svg width="100%" height="100%" viewBox="0 0 64 64" version="1.1" xmlns="http://www.w3.org/2000/svg" xmlns:xlink="http://www.w3.org/1999/xlink" xml:space="preserve" xmlns:serif="http://www.serif.com/" style="fill-rule:evenodd;clip-rule:evenodd;stroke-linejoin:round;stroke-miterlimit:2;">
    <g transform="matrix(1,0,0,1,-1544,-3040)">
        <g id="tool-menu" transform="matrix(0.5,0,0,0.5,772,1520)">
            <rect x="1544" y="3040" width="128" height="128" style="fill:none;"/>
            <g transform="matrix(2,0,0,2,-1544,-3040)">
                <path d="M1571.42,3091L1580.58,3091L1580.58,3083L1571.42,3083L1571.42,3091Z"/>
            </g>
            <g transform="matrix(2,0,0,2,-1544,-3040)">
                <path d="M1580.58,3068L1571.42,3068L1571.42,3076L1580.58,3076L1580.58,3068Z"/>
            </g>
            <g transform="matrix(2,0,0,2,-1544,-3040)">
                <path d="M1571.42,3061L1580.58,3061L1580.58,3053L1571.42,3053L1571.42,3061Z"/>
            </g>
        </g>
    </g>
</svg>
