<?xml version="1.0" encoding="UTF-8" standalone="no"?>
<!DOCTYPE svg PUBLIC "-//W3C//DTD SVG 1.1//EN" "http://www.w3.org/Graphics/SVG/1.1/DTD/svg11.dtd">
<svg width="100%" height="100%" viewBox="0 0 64 64" version="1.1" xmlns="http://www.w3.org/2000/svg" xmlns:xlink="http://www.w3.org/1999/xlink" xml:space="preserve" xmlns:serif="http://www.serif.com/" style="fill-rule:evenodd;clip-rule:evenodd;stroke-linejoin:round;stroke-miterlimit:2;">
    <g transform="matrix(1,0,0,1,-2332,-3072)">
        <g id="transponders-view" transform="matrix(0.5,0,0,0.5,1408,1552)">
            <rect x="1848" y="3040" width="128" height="128" style="fill:none;"/>
            <g transform="matrix(2,0,0,2,-2816,-3104)">
                <path d="M2350.71,3120.33L2347.71,3120.33C2346.6,3120.33 2345.71,3121.23 2345.71,3122.33C2345.71,3123.44 2346.6,3124.33 2347.71,3124.33L2359.71,3124.33C2360.81,3124.33 2361.71,3123.44 2361.71,3122.33C2361.71,3121.23 2360.81,3120.33 2359.71,3120.33L2356.71,3120.33L2356.71,3117.33C2356.71,3115.68 2355.36,3114.33 2353.71,3114.33C2352.05,3114.33 2350.71,3115.68 2350.71,3117.33L2350.71,3120.33Z"/>
            </g>
            <g transform="matrix(2,0,0,2,-2816,-3104)">
                <path d="M2357.29,3111.5C2357.19,3111.5 2357.1,3111.5 2357,3111.5C2346.93,3111.5 2338.75,3103.1 2338.75,3092.75C2338.75,3082.4 2346.93,3074 2357,3074C2367.07,3074 2375.25,3082.4 2375.25,3092.75C2375.25,3096.06 2374.41,3099.17 2372.95,3101.87L2384,3097.84L2384,3094.77C2384,3093.94 2384.67,3093.27 2385.5,3093.27L2388.5,3093.27C2389.33,3093.27 2390,3093.94 2390,3094.77L2390,3105.77C2390,3106.6 2389.33,3107.27 2388.5,3107.27L2385.5,3107.27C2384.67,3107.27 2384,3106.6 2384,3105.77L2384,3104.23L2358.07,3113.66L2357.29,3111.5Z"/>
            </g>
        </g>
    </g>
</svg>
