<?xml version="1.0" encoding="UTF-8" standalone="no"?>
<!DOCTYPE svg PUBLIC "-//W3C//DTD SVG 1.1//EN" "http://www.w3.org/Graphics/SVG/1.1/DTD/svg11.dtd">
<svg width="100%" height="100%" viewBox="0 0 64 64" version="1.1" xmlns="http://www.w3.org/2000/svg" xmlns:xlink="http://www.w3.org/1999/xlink" xml:space="preserve" xmlns:serif="http://www.serif.com/" style="fill-rule:evenodd;clip-rule:evenodd;stroke-linejoin:round;stroke-miterlimit:2;">
    <g transform="matrix(1,0,0,1,-2332,-3136)">
        <g id="tunersets-view" transform="matrix(0.5,0,0,0.5,1408,1616)">
            <rect x="1848" y="3040" width="128" height="128" style="fill:none;"/>
            <g transform="matrix(2,0,0,2,-2816,-3232)">
                <path d="M2396,3200L2332,3200L2332,3181L2396,3181L2396,3200ZM2368.85,3183.66C2368.91,3183.65 2368.97,3183.65 2369.02,3183.65C2369.16,3183.65 2369.3,3183.66 2369.43,3183.69C2369.79,3183.76 2370.12,3183.92 2370.4,3184.17C2370.81,3184.54 2371,3185.04 2370.97,3185.53C2370.97,3185.55 2370.97,3185.57 2370.97,3185.6L2370.98,3196.09C2370.98,3197.16 2370.1,3198.04 2369.03,3198.04C2367.95,3198.04 2367.08,3197.16 2367.08,3196.09L2367.08,3189.68L2365.11,3191.45C2364.7,3191.82 2364.16,3191.99 2363.63,3191.97C2363.1,3191.99 2362.56,3191.82 2362.15,3191.45L2360.18,3189.68L2360.18,3196.09C2360.18,3197.16 2359.3,3198.04 2358.23,3198.04C2357.15,3198.04 2356.28,3197.16 2356.28,3196.09L2356.28,3185.6C2356.28,3185.57 2356.29,3185.55 2356.29,3185.53C2356.26,3185.04 2356.45,3184.54 2356.86,3184.17C2357.13,3183.92 2357.47,3183.76 2357.83,3183.69C2357.96,3183.66 2358.1,3183.65 2358.23,3183.65C2358.29,3183.65 2358.35,3183.65 2358.41,3183.66C2358.86,3183.69 2359.3,3183.86 2359.65,3184.18L2363.63,3187.76L2367.6,3184.18C2367.95,3183.86 2368.4,3183.69 2368.85,3183.66ZM2373.89,3195.98C2373.89,3196 2373.89,3196.03 2373.89,3196.05C2373.89,3197.04 2374.69,3197.85 2375.68,3197.85L2384.16,3197.85C2385.15,3197.85 2385.95,3197.05 2385.95,3196.05C2385.95,3195.06 2385.15,3194.26 2384.16,3194.25L2377.78,3194.25L2377.79,3185.41C2377.79,3184.34 2376.91,3183.46 2375.84,3183.46C2374.76,3183.46 2373.89,3184.34 2373.89,3185.41L2373.89,3195.9C2373.89,3195.93 2373.89,3195.95 2373.89,3195.98ZM2346.89,3188.26L2351,3184.37C2351.75,3183.66 2352.97,3183.66 2353.72,3184.37C2354.46,3185.08 2354.46,3186.24 2353.71,3186.95L2349.61,3190.84L2353.71,3194.74C2354.46,3195.45 2354.46,3196.61 2353.72,3197.32C2352.97,3198.03 2351.75,3198.03 2351,3197.32L2346.89,3193.42L2342.79,3197.32C2342.04,3198.03 2340.82,3198.03 2340.07,3197.32C2339.32,3196.61 2339.32,3195.45 2340.07,3194.74L2344.18,3190.84L2340.07,3186.95C2339.32,3186.24 2339.32,3185.08 2340.07,3184.37C2340.82,3183.66 2342.04,3183.66 2342.79,3184.37L2346.89,3188.26Z"/>
            </g>
            <g transform="matrix(2,0,0,2,-2816,-3232)">
                <path d="M2357.29,3175.5C2357.19,3175.5 2357.1,3175.5 2357,3175.5C2346.93,3175.5 2338.75,3167.1 2338.75,3156.75C2338.75,3146.4 2346.93,3138 2357,3138C2367.07,3138 2375.25,3146.4 2375.25,3156.75C2375.25,3160.06 2374.41,3163.17 2372.95,3165.87L2384,3161.84L2384,3158.77C2384,3157.94 2384.67,3157.27 2385.5,3157.27L2388.5,3157.27C2389.33,3157.27 2390,3157.94 2390,3158.77L2390,3169.77C2390,3170.6 2389.33,3171.27 2388.5,3171.27L2385.5,3171.27C2384.67,3171.27 2384,3170.6 2384,3169.77L2384,3168.23L2358.07,3177.66L2357.29,3175.5Z"/>
            </g>
        </g>
    </g>
</svg>
