<?xml version="1.0" encoding="UTF-8" standalone="no"?>
<!DOCTYPE svg PUBLIC "-//W3C//DTD SVG 1.1//EN" "http://www.w3.org/Graphics/SVG/1.1/DTD/svg11.dtd">
<svg width="100%" height="100%" viewBox="0 0 64 64" version="1.1" xmlns="http://www.w3.org/2000/svg" xmlns:xlink="http://www.w3.org/1999/xlink" xml:space="preserve" xmlns:serif="http://www.serif.com/" style="fill-rule:evenodd;clip-rule:evenodd;stroke-linejoin:round;stroke-miterlimit:2;">
    <g transform="matrix(1,0,0,1,-2444,-3072)">
        <path d="M2478.5,3123.5C2478.5,3122.12 2477.38,3121 2476,3121C2474.62,3121 2473.5,3122.12 2473.5,3123.5L2473.5,3130.5C2473.5,3131.88 2474.62,3133 2476,3133C2477.38,3133 2478.5,3131.88 2478.5,3130.5L2478.5,3123.5ZM2470.5,3130.5L2470.5,3121.5C2470.5,3120.12 2469.38,3119 2468,3119C2466.62,3119 2465.5,3120.12 2465.5,3121.5L2465.5,3128L2453,3128C2451.62,3128 2450.5,3129.12 2450.5,3130.5C2450.5,3131.88 2451.62,3133 2453,3133L2468,3133C2469.38,3133 2470.5,3131.88 2470.5,3130.5ZM2484,3133L2484,3133L2499,3133C2500.38,3133 2501.5,3131.88 2501.5,3130.5C2501.5,3129.12 2500.38,3128 2499,3128L2486.5,3128L2486.5,3121.5C2486.5,3120.12 2485.38,3119 2484,3119C2482.62,3119 2481.5,3120.12 2481.5,3121.5L2481.5,3130.5C2481.5,3131.88 2482.62,3133 2484,3133Z"/>
    </g>
    <g transform="matrix(1,0,0,1,-2444,-3072)">
        <path d="M2473.77,3117.63C2463.31,3116.97 2455,3107.9 2455,3096.83C2455,3085.34 2463.96,3076 2475,3076C2486.04,3076 2495,3085.34 2495,3096.83C2495,3101.68 2493.41,3106.15 2490.73,3109.69L2501.33,3105.83L2501.33,3104.04C2501.33,3103.53 2501.74,3103.12 2502.25,3103.12L2504.08,3103.12C2504.59,3103.12 2505,3103.53 2505,3104.04L2505,3108.84C2505,3109.34 2504.59,3109.75 2504.08,3109.75L2502.26,3109.75L2474.57,3119.83L2473.77,3117.63ZM2475.5,3079.42C2466.43,3079.42 2459,3087.03 2459,3096.48C2459,3105.93 2466.43,3113.55 2475.5,3113.55C2484.57,3113.55 2492,3105.93 2492,3096.48C2492,3087.03 2484.57,3079.42 2475.5,3079.42ZM2484.08,3107.34L2475.27,3110.54C2467.93,3110.42 2462,3104.16 2462,3096.48C2462,3088.72 2468.05,3082.42 2475.5,3082.42C2482.95,3082.42 2489,3088.72 2489,3096.48C2489,3100.85 2487.08,3104.76 2484.08,3107.34Z"/>
    </g>
</svg>
