<?xml version="1.0" encoding="UTF-8" standalone="no"?>
<!DOCTYPE svg PUBLIC "-//W3C//DTD SVG 1.1//EN" "http://www.w3.org/Graphics/SVG/1.1/DTD/svg11.dtd">
<svg width="100%" height="100%" viewBox="0 0 64 64" version="1.1" xmlns="http://www.w3.org/2000/svg" xmlns:xlink="http://www.w3.org/1999/xlink" xml:space="preserve" xmlns:serif="http://www.serif.com/" style="fill-rule:evenodd;clip-rule:evenodd;stroke-linejoin:round;stroke-miterlimit:2;">
    <g id="tunersets-view" transform="matrix(0.5,0,0,0.5,-924,-1520)">
        <rect x="1848" y="3040" width="128" height="128" style="fill:none;"/>
        <clipPath id="_clip1">
            <rect x="1848" y="3040" width="128" height="128"/>
        </clipPath>
        <g clip-path="url(#_clip1)">
            <g transform="matrix(2,0,0,2,-3040,-3232)">
                <path d="M2478.66,3179.14L2469.55,3182.45L2468.35,3179.14L2444,3179.14L2444,3200L2500,3200L2500,3179.14L2478.66,3179.14ZM2478.75,3182.05C2478.81,3182.05 2478.88,3182.05 2478.94,3182.05C2479.09,3182.05 2479.24,3182.06 2479.39,3182.09C2479.78,3182.17 2480.15,3182.34 2480.45,3182.62C2480.9,3183.03 2481.11,3183.57 2481.08,3184.11C2481.08,3184.13 2481.08,3184.16 2481.08,3184.18L2481.08,3195.7C2481.09,3196.88 2480.13,3197.84 2478.95,3197.84C2477.76,3197.84 2476.81,3196.88 2476.8,3195.7L2476.8,3188.66L2474.64,3190.61C2474.2,3191.02 2473.6,3191.21 2473.02,3191.19C2472.43,3191.21 2471.84,3191.02 2471.39,3190.61L2469.23,3188.66L2469.23,3195.7C2469.23,3196.88 2468.27,3197.84 2467.09,3197.84C2465.91,3197.84 2464.95,3196.88 2464.95,3195.7L2464.95,3184.18C2464.95,3184.16 2464.95,3184.13 2464.95,3184.11C2464.92,3183.57 2465.13,3183.03 2465.58,3182.62C2465.89,3182.34 2466.26,3182.17 2466.65,3182.09C2466.79,3182.06 2466.94,3182.05 2467.09,3182.05C2467.16,3182.05 2467.22,3182.05 2467.28,3182.05C2467.78,3182.09 2468.27,3182.28 2468.65,3182.62L2473.02,3186.56L2477.38,3182.62C2477.76,3182.28 2478.25,3182.09 2478.75,3182.05ZM2484.28,3195.58C2484.28,3195.61 2484.28,3195.64 2484.28,3195.66C2484.28,3196.75 2485.16,3197.64 2486.25,3197.64L2495.55,3197.64C2496.64,3197.64 2497.53,3196.76 2497.53,3195.67C2497.53,3194.58 2496.64,3193.69 2495.55,3193.69L2488.56,3193.69L2488.56,3183.98C2488.56,3182.8 2487.6,3181.84 2486.42,3181.84C2485.24,3181.84 2484.28,3182.8 2484.28,3183.98L2484.28,3195.5C2484.28,3195.53 2484.28,3195.56 2484.28,3195.58ZM2454.64,3187.11L2459.14,3182.84C2459.97,3182.05 2461.31,3182.05 2462.13,3182.83C2462.95,3183.62 2462.95,3184.89 2462.13,3185.67L2457.62,3189.95L2462.13,3194.22C2462.95,3195 2462.95,3196.27 2462.13,3197.06C2461.31,3197.84 2459.97,3197.84 2459.14,3197.05L2454.64,3192.78L2450.13,3197.05C2449.31,3197.84 2447.97,3197.84 2447.15,3197.06C2446.32,3196.27 2446.32,3195 2447.15,3194.22L2451.66,3189.95L2447.15,3185.67C2446.32,3184.89 2446.32,3183.62 2447.15,3182.83C2447.97,3182.05 2449.31,3182.05 2450.13,3182.84L2454.64,3187.11Z"/>
            </g>
            <g transform="matrix(2,0,0,2,-3049,-3110)">
                <path d="M2473.77,3117.63C2463.31,3116.97 2455,3107.9 2455,3096.83C2455,3085.34 2463.96,3076 2475,3076C2486.04,3076 2495,3085.34 2495,3096.83C2495,3101.68 2493.41,3106.15 2490.73,3109.69L2501.33,3105.83L2501.33,3104.04C2501.33,3103.53 2501.74,3103.12 2502.25,3103.12L2504.08,3103.12C2504.59,3103.12 2505,3103.53 2505,3104.04L2505,3108.84C2505,3109.34 2504.59,3109.75 2504.08,3109.75L2502.26,3109.75L2474.57,3119.83L2473.77,3117.63ZM2475.5,3079.42C2466.43,3079.42 2459,3087.03 2459,3096.48C2459,3105.93 2466.43,3113.55 2475.5,3113.55C2484.57,3113.55 2492,3105.93 2492,3096.48C2492,3087.03 2484.57,3079.42 2475.5,3079.42ZM2484.08,3107.34L2475.27,3110.54C2467.93,3110.42 2462,3104.16 2462,3096.48C2462,3088.72 2468.05,3082.42 2475.5,3082.42C2482.95,3082.42 2489,3088.72 2489,3096.48C2489,3100.85 2487.08,3104.76 2484.08,3107.34Z"/>
            </g>
        </g>
    </g>
</svg>
