<?xml version="1.0" encoding="UTF-8" standalone="no"?>
<svg
   xmlns:dc="http://purl.org/dc/elements/1.1/"
   xmlns:cc="http://creativecommons.org/ns#"
   xmlns:rdf="http://www.w3.org/1999/02/22-rdf-syntax-ns#"
   xmlns:svg="http://www.w3.org/2000/svg"
   xmlns="http://www.w3.org/2000/svg"
   id="svg1027"
   style="fill-rule:evenodd;clip-rule:evenodd;stroke-linejoin:round;stroke-miterlimit:2;"
   xml:space="preserve"
   version="1.1"
   viewBox="0 0 512 512"
   height="100%"
   width="100%"><metadata
   id="metadata1031"><rdf:RDF><cc:Work
       rdf:about=""><dc:format>image/svg+xml</dc:format><dc:type
         rdf:resource="http://purl.org/dc/dcmitype/StillImage" /><dc:title></dc:title></cc:Work></rdf:RDF></metadata>
    <path
   id="path944"
   style="fill:#181715;fill-opacity:1;opacity:0.21;filter:url(#filter1621)"
   d="M463,124.66C463,83.73 429.77,50.5 388.84,50.5L125.16,50.5C84.23,50.5 51,83.73 51,124.66L51,388.34C51,429.27 84.23,462.5 125.16,462.5L388.84,462.5C429.77,462.5 463,429.27 463,388.34L463,124.66Z" />
    <g
   id="g1022">
        <path
   id="path946"
   style="fill:rgb(255,255,0);"
   d="M462,124.16C462,83.23 428.77,50 387.84,50L124.16,50C83.23,50 50,83.23 50,124.16L50,387.84C50,428.77 83.23,462 124.16,462L387.84,462C428.77,462 462,428.77 462,387.84L462,124.16Z" />
        <rect
   id="rect948"
   style="fill:rgb(179,189,0);"
   height="315"
   width="92"
   y="147"
   x="265" />
        <path
   id="path950"
   style="fill:rgb(152,148,148);"
   d="M50.009,123C50.003,123.383 50,123.771 50,124.16L50,147L462,147L462,124.16C462,123.771 461.997,123.383 461.991,123L50.009,123Z" />
        <path
   id="path952"
   style="fill:rgb(255,143,255);"
   d="M50.009,123L461.991,123C461.368,82.602 428.381,50 387.84,50L124.16,50C83.619,50 50.632,82.602 50.009,123Z" />
        <path
   id="path954"
   style="fill:rgb(50,58,62);"
   d="M137.1,206.518C137.576,206.191 138.152,206 138.772,206L373.2,206C373.82,206 374.396,206.191 374.872,206.518L434.9,262L77.1,262L137.1,206.518Z" />
        <path
   id="path956"
   style="fill:rgb(24,23,21);"
   d="M447,286.122C447,269.497 433.503,256 416.878,256L95.122,256C78.497,256 65,269.497 65,286.122L65,375.878C65,392.503 78.497,406 95.122,406L416.878,406C433.503,406 447,392.503 447,375.878L447,286.122Z" />
        <rect
   id="rect958"
   style="fill:rgb(13,13,13);"
   height="92"
   width="285"
   y="285"
   x="128" />
        <path
   id="path960"
   style="fill:rgb(64,64,64);"
   d="M251.99,346.412L253.995,341.6L258.005,341.6L260.01,346.412L258.005,351.224L253.995,351.224L251.99,346.412Z" />
        <path
   id="path962"
   style="fill:rgb(64,64,64);"
   d="M251.99,315.937L253.995,311.125L258.005,311.125L260.01,315.937L258.005,320.749L253.995,320.749L251.99,315.937Z" />
        <path
   id="path964"
   style="fill:rgb(64,64,64);"
   d="M134.5,320.791L134.5,304.751L138.35,298.335L140.274,298.335L144.124,304.751L144.124,320.791L140.274,327.206L138.35,327.206L134.5,320.791Z" />
        <path
   id="path966"
   style="fill:rgb(64,64,64);"
   d="M172.193,320.791L172.193,304.751L176.043,298.335L177.967,298.335L181.817,304.751L181.817,320.791L177.967,327.206L176.043,327.206L172.193,320.791Z" />
        <path
   id="path968"
   style="fill:rgb(64,64,64);"
   d="M150.139,326.004L166.178,326.004L172.594,329.853L172.594,331.778L166.178,335.627L150.139,335.627L143.723,331.778L143.723,329.853L150.139,326.004Z" />
        <path
   id="path970"
   style="fill:rgb(0,255,0);"
   d="M149.59,300.062L150.139,300.214L166.178,300.214C166.372,300.214 166.561,300.161 166.727,300.062L173.143,296.212C173.464,296.02 173.661,295.672 173.661,295.298L173.661,293.373C173.661,292.998 173.464,292.651 173.143,292.458L166.727,288.609C166.561,288.509 166.372,288.457 166.178,288.457L150.139,288.457C149.945,288.457 149.756,288.509 149.59,288.609L143.174,292.458C142.853,292.651 142.656,292.998 142.656,293.373L142.656,295.298C142.656,295.672 142.853,296.02 143.174,296.212L149.59,300.062Z" />
        <path
   id="path972"
   style="fill:rgb(64,64,64);"
   d="M172.193,356.88L172.193,340.84L176.043,334.424L177.967,334.424L181.817,340.84L181.817,356.88L177.967,363.296L176.043,363.296L172.193,356.88Z" />
        <path
   id="path974"
   style="fill:rgb(64,64,64);"
   d="M134.5,356.88L134.5,340.84L138.35,334.424L140.274,334.424L144.124,340.84L144.124,356.88L140.274,363.296L138.35,363.296L134.5,356.88Z" />
        <path
   id="path976"
   style="fill:rgb(0,255,0);"
   d="M149.59,373.042C149.735,373.129 150.139,373.194 150.139,373.194L166.178,373.194C166.372,373.194 166.561,373.141 166.727,373.042L173.143,369.193C173.464,369 173.661,368.653 173.661,368.278L173.661,366.353C173.661,365.978 173.464,365.631 173.143,365.438L166.727,361.589C166.561,361.489 166.372,361.437 166.178,361.437L150.139,361.437C149.945,361.437 149.756,361.489 149.59,361.589L143.174,365.438C142.853,365.631 142.656,365.978 142.656,366.353L142.656,368.278C142.656,368.653 142.853,369 143.174,369.193L149.59,373.042Z" />
        <path
   id="path978"
   style="fill:rgb(0,255,0);"
   d="M205.984,321.348C206.084,321.186 206.141,320.995 206.141,320.791L206.141,304.751C206.141,304.558 206.088,304.368 205.989,304.202L202.139,297.786C201.947,297.465 201.599,297.269 201.225,297.269L199.3,297.269C198.925,297.269 198.578,297.465 198.385,297.786L194.536,304.202C194.436,304.368 194.384,304.558 194.384,304.751L194.384,320.791C194.384,320.984 194.436,321.174 194.536,321.339L198.385,327.755C198.578,328.077 198.925,328.273 199.3,328.273L201.225,328.273C201.599,328.273 201.947,328.077 202.139,327.755L205.984,321.348Z" />
        <path
   id="path980"
   style="fill:rgb(64,64,64);"
   d="M233.144,320.791L233.144,304.751L236.993,298.335L238.918,298.335L242.767,304.751L242.767,320.791L238.918,327.206L236.993,327.206L233.144,320.791Z" />
        <path
   id="path982"
   style="fill:rgb(0,255,0);"
   d="M210.54,336.542L211.089,336.694L227.129,336.694C227.322,336.694 227.512,336.641 227.678,336.542L234.093,332.692C234.415,332.5 234.611,332.152 234.611,331.778L234.611,329.853C234.611,329.478 234.415,329.131 234.093,328.938L227.678,325.089C227.512,324.989 227.322,324.937 227.129,324.937L211.089,324.937C210.896,324.937 210.706,324.989 210.54,325.089L204.124,328.938C203.803,329.131 203.607,329.478 203.607,329.853L203.607,331.778C203.607,332.152 203.803,332.5 204.124,332.692L210.54,336.542Z" />
        <path
   id="path984"
   style="fill:rgb(0,255,0);"
   d="M210.54,300.062L211.089,300.214L227.129,300.214C227.322,300.214 227.512,300.161 227.678,300.062L234.093,296.212C234.415,296.02 234.611,295.672 234.611,295.298L234.611,293.373C234.611,292.998 234.415,292.651 234.093,292.458L227.678,288.609C227.512,288.509 227.322,288.457 227.129,288.457L211.089,288.457C210.896,288.457 210.706,288.509 210.54,288.609L204.124,292.458C203.803,292.651 203.607,292.998 203.607,293.373L203.607,295.298C203.607,295.672 203.803,296.02 204.124,296.212L210.54,300.062Z" />
        <path
   id="path986"
   style="fill:rgb(64,64,64);"
   d="M233.144,356.88L233.144,340.84L236.993,334.424L238.918,334.424L242.767,340.84L242.767,356.88L238.918,363.296L236.993,363.296L233.144,356.88Z" />
        <path
   id="path988"
   style="fill:rgb(0,255,0);"
   d="M205.984,357.437C206.084,357.275 206.141,357.084 206.141,356.88L206.141,340.84C206.141,340.647 206.088,340.457 205.989,340.291L202.139,333.876C201.947,333.554 201.599,333.358 201.225,333.358L199.3,333.358C198.925,333.358 198.578,333.554 198.385,333.876L194.536,340.291C194.436,340.457 194.384,340.647 194.384,340.84L194.384,356.88C194.384,357.073 194.436,357.263 194.536,357.429L198.385,363.844C198.578,364.166 198.925,364.362 199.3,364.362L201.225,364.362C201.599,364.362 201.947,364.166 202.139,363.844L205.984,357.437Z" />
        <path
   id="path990"
   style="fill:rgb(0,255,0);"
   d="M210.54,373.042C210.685,373.129 211.089,373.194 211.089,373.194L227.129,373.194C227.322,373.194 227.512,373.141 227.678,373.042L234.093,369.193C234.415,369 234.611,368.653 234.611,368.278L234.611,366.353C234.611,365.978 234.415,365.631 234.093,365.438L227.678,361.589C227.512,361.489 227.322,361.437 227.129,361.437L211.089,361.437C210.896,361.437 210.706,361.489 210.54,361.589L204.124,365.438C203.803,365.631 203.607,365.978 203.607,366.353L203.607,368.278C203.607,368.653 203.803,369 204.124,369.193L210.54,373.042Z" />
        <path
   id="path992"
   style="fill:rgb(64,64,64);"
   d="M269.233,321.14L269.233,305.1L273.082,298.684L275.007,298.684L278.856,305.1L278.856,321.14L275.007,327.556L273.082,327.556L269.233,321.14Z" />
        <path
   id="path994"
   style="fill:rgb(0,255,0);"
   d="M317.459,321.697C317.559,321.535 317.616,321.344 317.616,321.14L317.616,305.1C317.616,304.907 317.564,304.717 317.464,304.551L313.615,298.136C313.422,297.814 313.075,297.618 312.7,297.618L310.775,297.618C310.401,297.618 310.053,297.814 309.861,298.136L306.011,304.551C305.912,304.717 305.859,304.907 305.859,305.1L305.859,321.14C305.859,321.333 305.912,321.523 306.011,321.689L309.861,328.104C310.053,328.426 310.401,328.622 310.775,328.622L312.7,328.622C313.075,328.622 313.422,328.426 313.615,328.104L317.459,321.697Z" />
        <path
   id="path996"
   style="fill:rgb(0,255,0);"
   d="M284.322,336.891C284.468,336.978 284.871,337.043 284.871,337.043L300.911,337.043C301.104,337.043 301.294,336.991 301.46,336.891L307.876,333.042C308.197,332.849 308.393,332.502 308.393,332.127L308.393,330.202C308.393,329.828 308.197,329.48 307.876,329.288L301.46,325.438C301.294,325.339 301.104,325.286 300.911,325.286L284.871,325.286C284.678,325.286 284.488,325.339 284.322,325.438L277.907,329.288C277.585,329.48 277.389,329.828 277.389,330.202L277.389,332.127C277.389,332.502 277.585,332.849 277.907,333.042L284.322,336.891Z" />
        <path
   id="path998"
   style="fill:rgb(0,255,0);"
   d="M284.314,300.406L277.907,296.562C277.585,296.369 277.389,296.022 277.389,295.647L277.389,293.722C277.389,293.347 277.585,293 277.907,292.807L284.322,288.958C284.488,288.859 284.678,288.806 284.871,288.806L300.911,288.806C301.104,288.806 301.294,288.859 301.46,288.958L307.876,292.807C308.197,293 308.393,293.347 308.393,293.722L308.393,295.647C308.393,296.022 308.197,296.369 307.876,296.562L301.46,300.411C301.294,300.511 301.104,300.563 300.911,300.563C300.911,300.563 284.871,300.563 284.871,300.563L284.314,300.406Z" />
        <path
   id="path1000"
   style="fill:rgb(64,64,64);"
   d="M306.926,357.229L306.926,341.189L310.775,334.774L312.7,334.774L316.55,341.189L316.55,357.229L312.7,363.645L310.775,363.645L306.926,357.229Z" />
        <path
   id="path1002"
   style="fill:rgb(0,255,0);"
   d="M268.166,357.229C268.166,357.422 268.219,357.612 268.318,357.778L272.168,364.194C272.36,364.515 272.707,364.711 273.082,364.711L275.007,364.711C275.382,364.711 275.729,364.515 275.922,364.194L279.771,357.778L279.923,357.229L279.923,341.189C279.923,340.996 279.871,340.806 279.771,340.641L275.922,334.225C275.729,333.903 275.382,333.707 275.007,333.707L273.082,333.707C272.707,333.707 272.36,333.903 272.168,334.225L268.318,340.641C268.219,340.806 268.166,340.996 268.166,341.189L268.166,357.229Z" />
        <path
   id="path1004"
   style="fill:rgb(0,255,0);"
   d="M284.871,373.543C285.46,373.543 284.871,373.543 284.871,373.543C284.678,373.543 284.488,373.491 284.322,373.391L277.907,369.542C277.585,369.349 277.389,369.002 277.389,368.627L277.389,366.702C277.389,366.328 277.585,365.98 277.907,365.788L284.322,361.938C284.488,361.839 284.678,361.786 284.871,361.786L300.911,361.786C301.104,361.786 301.294,361.839 301.46,361.938L307.876,365.788C308.197,365.98 308.393,366.328 308.393,366.702L308.393,368.627C308.393,369.002 308.197,369.349 307.876,369.542L301.46,373.391C301.294,373.491 301.104,373.543 300.911,373.543L284.871,373.543Z" />
        <path
   id="path1006"
   style="fill:rgb(64,64,64);"
   d="M330.183,321.14L330.183,305.1L334.033,298.684L335.957,298.684L339.807,305.1L339.807,321.14L335.957,327.556L334.033,327.556L330.183,321.14Z" />
        <path
   id="path1008"
   style="fill:rgb(64,64,64);"
   d="M367.876,321.14L367.876,305.1L371.726,298.684L373.65,298.684L377.5,305.1L377.5,321.14L373.65,327.556L371.726,327.556L367.876,321.14Z" />
        <path
   id="path1010"
   style="fill:rgb(64,64,64);"
   d="M345.822,326.353L361.861,326.353L368.277,330.202L368.277,332.127L361.861,335.976L345.822,335.976L339.406,332.127L339.406,330.202L345.822,326.353Z" />
        <path
   id="path1012"
   style="fill:rgb(0,255,0);"
   d="M345.822,288.806C345.628,288.806 345.439,288.859 345.273,288.958L338.857,292.807C338.536,293 338.339,293.347 338.339,293.722L338.339,295.647C338.339,296.022 338.536,296.369 338.857,296.562L345.273,300.411L345.822,300.563C345.822,300.563 361.861,300.563 361.861,300.563C362.055,300.563 362.244,300.511 362.41,300.411L368.826,296.562C369.147,296.369 369.344,296.022 369.344,295.647L369.344,293.722C369.344,293.347 369.147,293 368.826,292.807L362.41,288.958C362.244,288.859 362.055,288.806 361.861,288.806L345.822,288.806Z" />
        <path
   id="path1014"
   style="fill:rgb(64,64,64);"
   d="M367.876,357.229L367.876,341.189L371.726,334.774L373.65,334.774L377.5,341.189L377.5,357.229L373.65,363.645L371.726,363.645L367.876,357.229Z" />
        <path
   id="path1016"
   style="fill:rgb(64,64,64);"
   d="M330.183,357.229L330.183,341.189L334.033,334.774L335.957,334.774L339.807,341.189L339.807,357.229L335.957,363.645L334.033,363.645L330.183,357.229Z" />
        <path
   id="path1018"
   style="fill:rgb(0,255,0);"
   d="M345.273,373.391C345.418,373.478 345.822,373.543 345.822,373.543L361.861,373.543C362.055,373.543 362.244,373.491 362.41,373.391L368.826,369.542C369.147,369.349 369.344,369.002 369.344,368.627L369.344,366.702C369.344,366.328 369.147,365.98 368.826,365.788L362.41,361.938C362.244,361.839 362.055,361.786 361.861,361.786L345.822,361.786C345.628,361.786 345.439,361.839 345.273,361.938L338.857,365.788C338.536,365.98 338.339,366.328 338.339,366.702L338.339,368.627C338.339,369.002 338.536,369.349 338.857,369.542L345.273,373.391Z" />
        <circle
   id="circle1020"
   style="fill:rgb(255,0,0);"
   r="9"
   cy="363.645"
   cx="397.5" />
    </g>
    <defs
   id="defs1025">
    <filter
   height="1.072"
   y="-0.036"
   width="1.072"
   x="-0.036"
   id="filter1621"
   style="color-interpolation-filters:sRGB"><feGaussianBlur
     id="feGaussianBlur1623"
     stdDeviation="6.18" /></filter></defs>
</svg>