<?xml version="1.0" encoding="UTF-8" standalone="no"?>
<!DOCTYPE svg PUBLIC "-//W3C//DTD SVG 1.1//EN" "http://www.w3.org/Graphics/SVG/1.1/DTD/svg11.dtd">
<svg width="100%" height="100%" viewBox="0 0 64 64" version="1.1" xmlns="http://www.w3.org/2000/svg" xmlns:xlink="http://www.w3.org/1999/xlink" xml:space="preserve" xmlns:serif="http://www.serif.com/" style="fill-rule:evenodd;clip-rule:evenodd;stroke-linejoin:round;stroke-miterlimit:2;">
    <g transform="matrix(0.125,0,0,0.125,0,0)">
        <rect x="0" y="0" width="512" height="512" style="fill-opacity:0;"/>
    </g>
    <g id="cli-64" transform="matrix(0.125,0,0,0.125,-0.0625,-0.03125)">
        <path d="M470.533,166.467L470.533,387.84C470.533,433.48 433.48,470.533 387.84,470.533L124.16,470.533C78.52,470.533 41.467,433.48 41.467,387.84L41.467,166.467L470.533,166.467Z" style="fill:rgb(129,144,100);"/>
        <path d="M50,160.25L462,160.25L462,387.84C462,428.77 428.77,462 387.84,462L124.16,462C83.23,462 50,428.77 50,387.84L50,160.25Z" style="fill:rgb(255,250,0);"/>
        <g transform="matrix(8,0,0,8,-1792,-1784)">
            <path d="M272.48,229.183C278.131,229.183 282.728,233.728 282.815,239.359L282.815,239.374L282.817,241.831L229.184,241.831L229.185,239.374L229.186,239.359C229.272,233.728 233.855,229.183 239.505,229.183L272.48,229.183Z" style="fill:rgb(254,128,250);"/>
        </g>
        <rect x="41.467" y="135" width="429.067" height="40" style="fill:rgb(149,144,144);"/>
        <g transform="matrix(55.3229,0,0,8.71509,-13034.5,-1963.97)">
            <rect x="236.357" y="240.844" width="7.756" height="4.59" style="fill:rgb(149,144,144);"/>
        </g>
        <g transform="matrix(1.00524,0,0,1.42933,-1.34031,-149.909)">
            <path d="M447,286.122C447,269.497 433.503,256 416.878,256L95.122,256C78.497,256 65,269.497 65,286.122L65,375.878C65,392.503 78.497,406 95.122,406L416.878,406C433.503,406 447,392.503 447,375.878L447,286.122Z" style="fill:rgb(18,29,25);"/>
        </g>
        <g transform="matrix(7.13192,0,0,8.58168,-1567.85,-1953.39)">
            <rect x="268.139" y="256.551" width="2.804" height="14.449" style="fill:rgb(238,238,244);"/>
        </g>
        <g transform="matrix(6.78935,0,0,8.03213,-1477.22,-1807.97)">
            <path d="M252.992,271.423L252.992,256L255.938,256L255.938,268.933L264.186,268.933L264.186,271.423L252.992,271.423Z" style="fill:rgb(238,238,244);"/>
        </g>
        <g transform="matrix(6.15736,0,0,9.45785,-1328.94,-2172.96)">
            <path d="M238.003,269.098L238.003,256L250.996,256L250.996,258.961L241.251,258.961L241.251,266.983L250.996,266.983L250.996,269.098L238.003,269.098Z" style="fill:rgb(238,238,244);"/>
        </g>
        <g transform="matrix(12.4695,0,0,5.8998,-2977.66,-1216.55)">
            <path d="M272.838,274.043L272.838,275.399C272.838,275.773 272.694,276.077 272.517,276.077L268.026,276.077C267.849,276.077 267.705,275.773 267.705,275.399L267.705,274.043C267.705,273.668 267.849,273.365 268.026,273.365L272.517,273.365C272.694,273.365 272.838,273.668 272.838,274.043Z" style="fill:rgb(44,244,0);"/>
        </g>
    </g>
    <g transform="matrix(0.125,0,0,0.125,0,0)">
        <rect x="0" y="0" width="512" height="512" style="fill:rgb(50,50,50);"/>
    </g>
</svg>
