<?xml version="1.0" encoding="UTF-8" standalone="no"?>
<!DOCTYPE svg PUBLIC "-//W3C//DTD SVG 1.1//EN" "http://www.w3.org/Graphics/SVG/1.1/DTD/svg11.dtd">
<svg width="100%" height="100%" viewBox="0 0 512 512" version="1.1" xmlns="http://www.w3.org/2000/svg" xmlns:xlink="http://www.w3.org/1999/xlink" xml:space="preserve" xmlns:serif="http://www.serif.com/" style="fill-rule:evenodd;clip-rule:evenodd;stroke-linejoin:round;stroke-miterlimit:2;">
    <g transform="matrix(1.0095,0,0,1.00336,-2.0384,0.828593)">
        <rect x="2.019" y="-0.826" width="507.181" height="510.288" style="fill:none;"/>
    </g>
    <g id="_512" serif:id="512">
        <g transform="matrix(2.10245,0,0,2.0363,-12.4344,1.94526)">
            <path d="M226.419,60.804L226.419,189.508C226.419,210.042 210.273,226.713 190.385,226.713L64.969,226.713C45.081,226.713 28.935,210.042 28.935,189.508L28.935,60.804C28.935,40.27 45.081,23.599 64.969,23.599L190.385,23.599C210.273,23.599 226.419,40.27 226.419,60.804Z" style="fill:rgb(21,24,23);"/>
        </g>
        <path id="png" d="M463.6,387.84C463.6,429.653 429.653,463.6 387.84,463.6L124.16,463.6C82.347,463.6 48.4,429.653 48.4,387.84L48.4,145.4L463.6,145.4L463.6,387.84Z" style="fill:rgb(129,144,100);"/>
        <path id="png1" serif:id="png" d="M463.6,387.84C463.6,429.653 429.653,463.6 387.84,463.6L124.16,463.6C82.347,463.6 48.4,429.653 48.4,387.84L48.4,145.4L463.6,145.4L463.6,387.84Z" style="fill:rgb(129,144,100);"/>
        <path d="M463.6,387.84C463.6,429.653 429.653,463.6 387.84,463.6L124.16,463.6C82.347,463.6 48.4,429.653 48.4,387.84L48.4,145.4L463.6,145.4L463.6,387.84Z" style="fill:rgb(129,144,100);"/>
        <path d="M50,140L462,140L462,387.84C462,428.77 428.77,462 387.84,462L124.16,462C83.23,462 50,428.77 50,387.84L50,140Z" style="fill:rgb(255,250,0);"/>
        <rect x="265" y="147" width="92" height="315" style="fill:rgb(179,189,0);"/>
        <g transform="matrix(1.00361,0,0,1,-0.924969,2)">
            <path d="M417.347,54.368C441.315,64.526 459.01,86.679 462.843,113.282C462.859,113.398 462.753,120 462.753,120L49.247,120C49.247,120 49.164,113.398 49.18,113.282C53.013,86.679 70.685,64.526 94.653,54.368C103.818,50.275 113.964,48 124.635,48L387.365,48C398.036,48 408.182,50.275 417.347,54.368Z" style="fill:rgb(254,128,250);"/>
        </g>
        <g id="png2" serif:id="png" transform="matrix(2.10245,0,0,-2.0363,-12.4344,260.337)">
            <rect x="28.938" y="55.658" width="197.478" height="15.576" style="fill:rgb(149,144,144);"/>
        </g>
        <g transform="matrix(2.10245,0,0,-2.0363,-12.4344,260.337)">
            <rect x="28.938" y="55.658" width="197.478" height="15.576" style="fill:rgb(149,144,144);"/>
        </g>
        <g transform="matrix(17.0807,0,0,1,-1006.61,-2.84217e-14)">
            <rect x="61.767" y="115.282" width="24.307" height="31.718" style="fill:rgb(149,144,144);"/>
        </g>
        <g transform="matrix(0.962843,0,0,0.95082,9.26216,13.1311)">
            <path d="M131.91,206.518C132.386,206.191 132.962,206 133.583,206L377.352,206C377.972,206 378.548,206.191 379.024,206.518L440.5,267L72.019,267L131.91,206.518Z" style="fill:rgb(50,58,58);"/>
        </g>
        <g transform="matrix(0.963351,0,0,1,9.3822,0)">
            <path d="M447,286.122C447,269.497 433.503,256 416.878,256L95.122,256C78.497,256 65,269.497 65,286.122L65,375.878C65,392.503 78.497,406 95.122,406L416.878,406C433.503,406 447,392.503 447,375.878L447,286.122Z" style="fill:rgb(18,29,25);"/>
        </g>
        <rect x="128" y="285" width="285" height="92" style="fill:rgb(0,22,0);"/>
        <path d="M251.99,346.412L253.995,341.6L258.005,341.6L260.01,346.412L258.005,351.224L253.995,351.224L251.99,346.412Z" style="fill:rgb(44,67,67);"/>
        <path d="M251.99,315.937L253.995,311.125L258.005,311.125L260.01,315.937L258.005,320.749L253.995,320.749L251.99,315.937Z" style="fill:rgb(44,67,67);"/>
        <path d="M172.193,356.88L172.193,340.84L176.043,334.424L177.967,334.424L181.817,340.84L181.817,356.88L177.967,363.296L176.043,363.296L172.193,356.88Z" style="fill:rgb(44,67,67);"/>
        <path d="M172.193,320.791L172.193,304.751L176.043,298.335L177.967,298.335L181.817,304.751L181.817,320.791L177.967,327.206L176.043,327.206L172.193,320.791Z" style="fill:rgb(44,67,67);"/>
        <g transform="matrix(1,0,0,1,-60.9505,-0.00999544)">
            <path d="M210.54,373.042C210.685,373.129 211.089,373.194 211.089,373.194L227.129,373.194C227.322,373.194 227.512,373.141 227.678,373.042L234.093,369.193C234.415,369 234.611,368.653 234.611,368.278L234.611,366.353C234.611,365.978 234.415,365.631 234.093,365.438L227.678,361.589C227.512,361.489 227.322,361.437 227.129,361.437L211.089,361.437C210.896,361.437 210.706,361.489 210.54,361.589L204.124,365.438C203.803,365.631 203.607,365.978 203.607,366.353L203.607,368.278C203.607,368.653 203.803,369 204.124,369.193L210.54,373.042Z" style="fill:rgb(44,255,0);"/>
        </g>
        <g transform="matrix(1,0,0,1,-60.9505,-0.00999544)">
            <path d="M210.54,336.542L211.089,336.694L227.129,336.694C227.322,336.694 227.512,336.641 227.678,336.542L234.093,332.692C234.415,332.5 234.611,332.152 234.611,331.778L234.611,329.853C234.611,329.478 234.415,329.131 234.093,328.938L227.678,325.089C227.512,324.989 227.322,324.937 227.129,324.937L211.089,324.937C210.896,324.937 210.706,324.989 210.54,325.089L204.124,328.938C203.803,329.131 203.607,329.478 203.607,329.853L203.607,331.778C203.607,332.152 203.803,332.5 204.124,332.692L210.54,336.542Z" style="fill:rgb(44,255,0);"/>
        </g>
        <g transform="matrix(1,0,0,1,-60.9505,-0.00999544)">
            <path d="M210.54,300.062L211.089,300.214L227.129,300.214C227.322,300.214 227.512,300.161 227.678,300.062L234.093,296.212C234.415,296.02 234.611,295.672 234.611,295.298L234.611,293.373C234.611,292.998 234.415,292.651 234.093,292.458L227.678,288.609C227.512,288.509 227.322,288.457 227.129,288.457L211.089,288.457C210.896,288.457 210.706,288.509 210.54,288.609L204.124,292.458C203.803,292.651 203.607,292.998 203.607,293.373L203.607,295.298C203.607,295.672 203.803,296.02 204.124,296.212L210.54,300.062Z" style="fill:rgb(44,255,0);"/>
        </g>
        <g transform="matrix(1,0,0,1,-60.9505,-0.00999544)">
            <path d="M205.984,357.437C206.084,357.275 206.141,357.084 206.141,356.88L206.141,340.84C206.141,340.647 206.088,340.457 205.989,340.291L202.139,333.876C201.947,333.554 201.599,333.358 201.225,333.358L199.3,333.358C198.925,333.358 198.578,333.554 198.385,333.876L194.536,340.291C194.436,340.457 194.384,340.647 194.384,340.84L194.384,356.88C194.384,357.073 194.436,357.263 194.536,357.429L198.385,363.844C198.578,364.166 198.925,364.362 199.3,364.362L201.225,364.362C201.599,364.362 201.947,364.166 202.139,363.844L205.984,357.437Z" style="fill:rgb(44,255,0);"/>
        </g>
        <g transform="matrix(1,0,0,1,-60.9505,-0.00999544)">
            <path d="M205.984,321.348C206.084,321.186 206.141,320.995 206.141,320.791L206.141,304.751C206.141,304.558 206.088,304.368 205.989,304.202L202.139,297.786C201.947,297.465 201.599,297.269 201.225,297.269L199.3,297.269C198.925,297.269 198.578,297.465 198.385,297.786L194.536,304.202C194.436,304.368 194.384,304.558 194.384,304.751L194.384,320.791C194.384,320.984 194.436,321.174 194.536,321.339L198.385,327.755C198.578,328.077 198.925,328.273 199.3,328.273L201.225,328.273C201.599,328.273 201.947,328.077 202.139,327.755L205.984,321.348Z" style="fill:rgb(44,255,0);"/>
        </g>
        <g transform="matrix(1,0,0,1,-73.7822,-0.359208)">
            <path d="M306.926,357.229L306.926,341.189L310.775,334.774L312.7,334.774L316.55,341.189L316.55,357.229L312.7,363.645L310.775,363.645L306.926,357.229Z" style="fill:rgb(44,67,67);"/>
        </g>
        <g transform="matrix(1,0,0,1,-73.7822,-0.359208)">
            <path d="M317.459,321.697C317.559,321.535 317.616,321.344 317.616,321.14L317.616,305.1C317.616,304.907 317.564,304.717 317.464,304.551L313.615,298.136C313.422,297.814 313.075,297.618 312.7,297.618L310.775,297.618C310.401,297.618 310.053,297.814 309.861,298.136L306.011,304.551C305.912,304.717 305.859,304.907 305.859,305.1L305.859,321.14C305.859,321.333 305.912,321.523 306.011,321.689L309.861,328.104C310.053,328.426 310.401,328.622 310.775,328.622L312.7,328.622C313.075,328.622 313.422,328.426 313.615,328.104L317.459,321.697Z" style="fill:rgb(44,255,0);"/>
        </g>
        <g transform="matrix(1,0,0,1,-73.7822,-0.359208)">
            <path d="M284.871,373.543C285.46,373.543 284.871,373.543 284.871,373.543C284.678,373.543 284.488,373.491 284.322,373.391L277.907,369.542C277.585,369.349 277.389,369.002 277.389,368.627L277.389,366.702C277.389,366.328 277.585,365.98 277.907,365.788L284.322,361.938C284.488,361.839 284.678,361.786 284.871,361.786L300.911,361.786C301.104,361.786 301.294,361.839 301.46,361.938L307.876,365.788C308.197,365.98 308.393,366.328 308.393,366.702L308.393,368.627C308.393,369.002 308.197,369.349 307.876,369.542L301.46,373.391C301.294,373.491 301.104,373.543 300.911,373.543L284.871,373.543Z" style="fill:rgb(44,255,0);"/>
        </g>
        <g transform="matrix(1,0,0,1,-73.7822,-0.359208)">
            <path d="M284.322,336.891C284.468,336.978 284.871,337.043 284.871,337.043L300.911,337.043C301.104,337.043 301.294,336.991 301.46,336.891L307.876,333.042C308.197,332.849 308.393,332.502 308.393,332.127L308.393,330.202C308.393,329.828 308.197,329.48 307.876,329.288L301.46,325.438C301.294,325.339 301.104,325.286 300.911,325.286L284.871,325.286C284.678,325.286 284.488,325.339 284.322,325.438L277.907,329.288C277.585,329.48 277.389,329.828 277.389,330.202L277.389,332.127C277.389,332.502 277.585,332.849 277.907,333.042L284.322,336.891Z" style="fill:rgb(44,255,0);"/>
        </g>
        <g transform="matrix(1,0,0,1,-73.7822,-0.359208)">
            <path d="M284.314,300.406L277.907,296.562C277.585,296.369 277.389,296.022 277.389,295.647L277.389,293.722C277.389,293.347 277.585,293 277.907,292.807L284.322,288.958C284.488,288.859 284.678,288.806 284.871,288.806L300.911,288.806C301.104,288.806 301.294,288.859 301.46,288.958L307.876,292.807C308.197,293 308.393,293.347 308.393,293.722L308.393,295.647C308.393,296.022 308.197,296.369 307.876,296.562L301.46,300.411C301.294,300.511 301.104,300.563 300.911,300.563C300.911,300.563 284.871,300.563 284.871,300.563L284.314,300.406Z" style="fill:rgb(44,255,0);"/>
        </g>
        <g transform="matrix(1,0,0,1,-73.7822,-0.359208)">
            <path d="M268.166,357.229C268.166,357.422 268.219,357.612 268.318,357.778L272.168,364.194C272.36,364.515 272.707,364.711 273.082,364.711L275.007,364.711C275.382,364.711 275.729,364.515 275.922,364.194L279.771,357.778L279.923,357.229L279.923,341.189C279.923,340.996 279.871,340.806 279.771,340.641L275.922,334.225C275.729,333.903 275.382,333.707 275.007,333.707L273.082,333.707C272.707,333.707 272.36,333.903 272.168,334.225L268.318,340.641C268.219,340.806 268.166,340.996 268.166,341.189L268.166,357.229Z" style="fill:rgb(44,255,0);"/>
        </g>
        <g transform="matrix(1,0,0,1,-73.7822,-0.359208)">
            <path d="M269.233,321.14L269.233,305.1L273.082,298.684L275.007,298.684L278.856,305.1L278.856,321.14L275.007,327.556L273.082,327.556L269.233,321.14Z" style="fill:rgb(44,67,67);"/>
        </g>
        <g transform="matrix(1,0,0,1,37.6931,-0.359208)">
            <path d="M268.166,357.229C268.166,357.422 268.219,357.612 268.318,357.778L272.168,364.194C272.36,364.515 272.707,364.711 273.082,364.711L275.007,364.711C275.382,364.711 275.729,364.515 275.922,364.194L279.771,357.778L279.923,357.229L279.923,341.189C279.923,340.996 279.871,340.806 279.771,340.641L275.922,334.225C275.729,333.903 275.382,333.707 275.007,333.707L273.082,333.707C272.707,333.707 272.36,333.903 272.168,334.225L268.318,340.641C268.219,340.806 268.166,340.996 268.166,341.189L268.166,357.229Z" style="fill:rgb(44,255,0);"/>
        </g>
        <g transform="matrix(1,0,0,1,134.733,0.349213)">
            <path d="M172.193,320.791L172.193,304.751L176.043,298.335L177.967,298.335L181.817,304.751L181.817,320.791L177.967,327.206L176.043,327.206L172.193,320.791Z" style="fill:rgb(44,67,67);"/>
        </g>
        <g transform="matrix(1,0,0,1,73.7822,0.339218)">
            <path d="M210.54,373.042C210.685,373.129 211.089,373.194 211.089,373.194L227.129,373.194C227.322,373.194 227.512,373.141 227.678,373.042L234.093,369.193C234.415,369 234.611,368.653 234.611,368.278L234.611,366.353C234.611,365.978 234.415,365.631 234.093,365.438L227.678,361.589C227.512,361.489 227.322,361.437 227.129,361.437L211.089,361.437C210.896,361.437 210.706,361.489 210.54,361.589L204.124,365.438C203.803,365.631 203.607,365.978 203.607,366.353L203.607,368.278C203.607,368.653 203.803,369 204.124,369.193L210.54,373.042Z" style="fill:rgb(44,255,0);"/>
        </g>
        <g transform="matrix(1,0,0,1,73.7822,0.339218)">
            <path d="M210.54,336.542L211.089,336.694L227.129,336.694C227.322,336.694 227.512,336.641 227.678,336.542L234.093,332.692C234.415,332.5 234.611,332.152 234.611,331.778L234.611,329.853C234.611,329.478 234.415,329.131 234.093,328.938L227.678,325.089C227.512,324.989 227.322,324.937 227.129,324.937L211.089,324.937C210.896,324.937 210.706,324.989 210.54,325.089L204.124,328.938C203.803,329.131 203.607,329.478 203.607,329.853L203.607,331.778C203.607,332.152 203.803,332.5 204.124,332.692L210.54,336.542Z" style="fill:rgb(44,255,0);"/>
        </g>
        <g transform="matrix(1,0,0,1,73.7822,0.339218)">
            <path d="M210.54,300.062L211.089,300.214L227.129,300.214C227.322,300.214 227.512,300.161 227.678,300.062L234.093,296.212C234.415,296.02 234.611,295.672 234.611,295.298L234.611,293.373C234.611,292.998 234.415,292.651 234.093,292.458L227.678,288.609C227.512,288.509 227.322,288.457 227.129,288.457L211.089,288.457C210.896,288.457 210.706,288.509 210.54,288.609L204.124,292.458C203.803,292.651 203.607,292.998 203.607,293.373L203.607,295.298C203.607,295.672 203.803,296.02 204.124,296.212L210.54,300.062Z" style="fill:rgb(44,255,0);"/>
        </g>
        <g transform="matrix(1,0,0,1,-60.9505,-5.68434e-14)">
            <path d="M330.183,357.229L330.183,341.189L334.033,334.774L335.957,334.774L339.807,341.189L339.807,357.229L335.957,363.645L334.033,363.645L330.183,357.229Z" style="fill:rgb(44,67,67);"/>
        </g>
        <g transform="matrix(1,0,0,1,73.7822,0.339218)">
            <path d="M205.984,321.348C206.084,321.186 206.141,320.995 206.141,320.791L206.141,304.751C206.141,304.558 206.088,304.368 205.989,304.202L202.139,297.786C201.947,297.465 201.599,297.269 201.225,297.269L199.3,297.269C198.925,297.269 198.578,297.465 198.385,297.786L194.536,304.202C194.436,304.368 194.384,304.558 194.384,304.751L194.384,320.791C194.384,320.984 194.436,321.174 194.536,321.339L198.385,327.755C198.578,328.077 198.925,328.273 199.3,328.273L201.225,328.273C201.599,328.273 201.947,328.077 202.139,327.755L205.984,321.348Z" style="fill:rgb(44,255,0);"/>
        </g>
        <path d="M367.876,357.229L367.876,341.189L371.726,334.774L373.65,334.774L377.5,341.189L377.5,357.229L373.65,363.645L371.726,363.645L367.876,357.229Z" style="fill:rgb(44,67,67);"/>
        <path d="M367.876,321.14L367.876,305.1L371.726,298.684L373.65,298.684L377.5,305.1L377.5,321.14L373.65,327.556L371.726,327.556L367.876,321.14Z" style="fill:rgb(44,67,67);"/>
        <g transform="matrix(1,0,0,1,134.733,0.349213)">
            <path d="M210.54,373.042C210.685,373.129 211.089,373.194 211.089,373.194L227.129,373.194C227.322,373.194 227.512,373.141 227.678,373.042L234.093,369.193C234.415,369 234.611,368.653 234.611,368.278L234.611,366.353C234.611,365.978 234.415,365.631 234.093,365.438L227.678,361.589C227.512,361.489 227.322,361.437 227.129,361.437L211.089,361.437C210.896,361.437 210.706,361.489 210.54,361.589L204.124,365.438C203.803,365.631 203.607,365.978 203.607,366.353L203.607,368.278C203.607,368.653 203.803,369 204.124,369.193L210.54,373.042Z" style="fill:rgb(44,244,0);"/>
        </g>
        <g transform="matrix(1,0,0,1,134.733,0.349213)">
            <path d="M210.54,336.542L211.089,336.694L227.129,336.694C227.322,336.694 227.512,336.641 227.678,336.542L234.093,332.692C234.415,332.5 234.611,332.152 234.611,331.778L234.611,329.853C234.611,329.478 234.415,329.131 234.093,328.938L227.678,325.089C227.512,324.989 227.322,324.937 227.129,324.937L211.089,324.937C210.896,324.937 210.706,324.989 210.54,325.089L204.124,328.938C203.803,329.131 203.607,329.478 203.607,329.853L203.607,331.778C203.607,332.152 203.803,332.5 204.124,332.692L210.54,336.542Z" style="fill:rgb(44,244,0);"/>
        </g>
        <path d="M345.822,288.806C345.628,288.806 345.439,288.859 345.273,288.958L338.857,292.807C338.536,293 338.339,293.347 338.339,293.722L338.339,295.647C338.339,296.022 338.536,296.369 338.857,296.562L345.273,300.411L345.822,300.563C345.822,300.563 361.861,300.563 361.861,300.563C362.055,300.563 362.244,300.511 362.41,300.411L368.826,296.562C369.147,296.369 369.344,296.022 369.344,295.647L369.344,293.722C369.344,293.347 369.147,293 368.826,292.807L362.41,288.958C362.244,288.859 362.055,288.806 361.861,288.806L345.822,288.806Z" style="fill:rgb(44,244,0);"/>
        <g transform="matrix(1,0,0,1,134.733,0.349213)">
            <path d="M205.984,357.437C206.084,357.275 206.141,357.084 206.141,356.88L206.141,340.84C206.141,340.647 206.088,340.457 205.989,340.291L202.139,333.876C201.947,333.554 201.599,333.358 201.225,333.358L199.3,333.358C198.925,333.358 198.578,333.554 198.385,333.876L194.536,340.291C194.436,340.457 194.384,340.647 194.384,340.84L194.384,356.88C194.384,357.073 194.436,357.263 194.536,357.429L198.385,363.844C198.578,364.166 198.925,364.362 199.3,364.362L201.225,364.362C201.599,364.362 201.947,364.166 202.139,363.844L205.984,357.437Z" style="fill:rgb(44,244,0);"/>
        </g>
        <g transform="matrix(1,0,0,1,134.733,0.349213)">
            <path d="M205.984,321.348C206.084,321.186 206.141,320.995 206.141,320.791L206.141,304.751C206.141,304.558 206.088,304.368 205.989,304.202L202.139,297.786C201.947,297.465 201.599,297.269 201.225,297.269L199.3,297.269C198.925,297.269 198.578,297.465 198.385,297.786L194.536,304.202C194.436,304.368 194.384,304.558 194.384,304.751L194.384,320.791C194.384,320.984 194.436,321.174 194.536,321.339L198.385,327.755C198.578,328.077 198.925,328.273 199.3,328.273L201.225,328.273C201.599,328.273 201.947,328.077 202.139,327.755L205.984,321.348Z" style="fill:rgb(44,244,0);"/>
        </g>
        <circle cx="397.5" cy="363.645" r="9" style="fill:rgb(238,0,0);"/>
    </g>
    <g transform="matrix(1.0095,0,0,1.00336,-2.0384,0.828593)">
        <rect x="2.019" y="-0.826" width="507.181" height="510.288" style="fill:rgb(51,51,51);"/>
    </g>
</svg>
